<svg width="17" height="24" viewBox="0 0 17 24" fill="none" xmlns="http://www.w3.org/2000/svg">
<g clip-path="url(#clip0_138_8011)">
<path d="M4.2 24C6.5184 24 8.4 22.2528 8.4 20.1V16.2H4.2C1.8816 16.2 0 17.9472 0 20.1C0 22.2528 1.8816 24 4.2 24Z" fill="#0ACF83"/>
<path d="M0 11.7C0 9.54725 1.8816 7.80005 4.2 7.80005H8.4V15.6H4.2C1.8816 15.6 0 13.8528 0 11.7Z" fill="#A259FF"/>
<path d="M0 3.9C0 1.7472 1.8816 0 4.2 0H8.4V7.8H4.2C1.8816 7.8 0 6.0528 0 3.9Z" fill="#F24E1E"/>
<path d="M8.40039 0H12.6004C14.9188 0 16.8004 1.7472 16.8004 3.9C16.8004 6.0528 14.9188 7.8 12.6004 7.8H8.40039V0Z" fill="#FF7262"/>
<path d="M16.8004 11.7C16.8004 13.8528 14.9188 15.6 12.6004 15.6C10.282 15.6 8.40039 13.8528 8.40039 11.7C8.40039 9.54725 10.282 7.80005 12.6004 7.80005C14.9188 7.80005 16.8004 9.54725 16.8004 11.7Z" fill="#1ABCFE"/>
</g>
<defs>
<clipPath id="clip0_138_8011">
<rect width="16.8" height="24" fill="white"/>
</clipPath>
</defs>
</svg>
