<svg width="25" height="24" viewBox="0 0 25 24" fill="none" xmlns="http://www.w3.org/2000/svg">
<g clip-path="url(#clip0_138_8017)">
<path d="M12.6629 19.3501C12.5826 19.3501 12.5038 19.3283 12.4349 19.2871L11.7119 18.8611C11.6039 18.8011 11.6579 18.7771 11.6939 18.7651C11.8087 18.7303 11.9186 18.6809 12.0209 18.6181C12.0292 18.6136 12.0385 18.6113 12.0479 18.6113C12.0573 18.6113 12.0666 18.6136 12.0749 18.6181L12.6299 18.9481C12.6399 18.9539 12.6513 18.9569 12.6629 18.9569C12.6745 18.9569 12.6858 18.9539 12.6959 18.9481L14.8649 17.7001C14.8745 17.6939 14.8825 17.6855 14.8883 17.6756C14.894 17.6657 14.8973 17.6545 14.8979 17.6431V15.1411C14.8973 15.1292 14.894 15.1177 14.8883 15.1073C14.8826 15.0969 14.8746 15.0879 14.8649 15.0811L12.6959 13.8301C12.6858 13.8243 12.6745 13.8212 12.6629 13.8212C12.6513 13.8212 12.6399 13.8243 12.6299 13.8301L10.4639 15.0811C10.4536 15.0874 10.4452 15.0962 10.4394 15.1067C10.4336 15.1172 10.4307 15.1291 10.4309 15.1411V17.6431C10.4306 17.6547 10.4335 17.6662 10.4393 17.6762C10.4452 17.6863 10.4537 17.6946 10.4639 17.7001L11.0639 18.0421C11.3849 18.2041 11.5829 18.0151 11.5829 17.8231V15.3541C11.5829 15.3374 11.5895 15.3214 11.6013 15.3095C11.6131 15.2977 11.6292 15.2911 11.6459 15.2911H11.9219C11.9301 15.2911 11.9383 15.2927 11.946 15.2959C11.9536 15.299 11.9606 15.3037 11.9664 15.3095C11.9723 15.3154 11.9769 15.3223 11.9801 15.33C11.9832 15.3376 11.9849 15.3458 11.9849 15.3541V17.8231C11.9968 17.9118 11.9887 18.0021 11.9612 18.0873C11.9337 18.1725 11.8874 18.2505 11.8259 18.3155C11.7643 18.3805 11.689 18.4309 11.6054 18.463C11.5218 18.4952 11.4321 18.5082 11.3429 18.5011C11.1661 18.5041 10.9922 18.4562 10.8419 18.3631L10.2749 18.0361C10.2056 17.9965 10.1481 17.9392 10.108 17.8702C10.068 17.8012 10.0469 17.7229 10.0469 17.6431V15.1411C10.047 15.0609 10.0681 14.9822 10.1081 14.9127C10.1481 14.8432 10.2056 14.7854 10.2749 14.7451L12.4349 13.5001C12.5048 13.4617 12.5832 13.4417 12.6629 13.4417C12.7426 13.4417 12.821 13.4617 12.8909 13.5001L15.0599 14.7511C15.1284 14.792 15.1851 14.85 15.2246 14.9194C15.264 14.9888 15.2848 15.0673 15.2849 15.1471V17.6491C15.2848 17.7285 15.2641 17.8066 15.2246 17.8755C15.1851 17.9444 15.1284 18.0019 15.0599 18.0421L12.8909 19.2871C12.8222 19.3287 12.7432 19.3506 12.6629 19.3501Z" fill="#679E63"/>
<path d="M13.3315 17.625C12.3835 17.625 12.1855 17.19 12.1855 16.827C12.1855 16.8103 12.1922 16.7943 12.204 16.7825C12.2158 16.7706 12.2318 16.764 12.2485 16.764H12.5275C12.5424 16.7637 12.5568 16.7687 12.5683 16.778C12.5799 16.7874 12.5877 16.8005 12.5905 16.815C12.6325 17.115 12.7585 17.244 13.3315 17.244C13.7875 17.244 13.9825 17.142 13.9825 16.899C13.9825 16.761 13.9285 16.656 13.2175 16.599C12.6175 16.539 12.2575 16.41 12.2575 15.936C12.2575 15.462 12.6265 15.237 13.2445 15.237C13.9405 15.237 14.2825 15.477 14.3275 15.996C14.3274 16.0136 14.321 16.0306 14.3095 16.044C14.3037 16.05 14.2967 16.0547 14.2889 16.0578C14.2812 16.0609 14.2729 16.0623 14.2645 16.062H13.9825C13.9685 16.0623 13.9548 16.0576 13.9439 16.0489C13.9329 16.0401 13.9254 16.0278 13.9225 16.014C13.8535 15.714 13.6915 15.618 13.2445 15.618C12.7465 15.618 12.6895 15.792 12.6895 15.918C12.6895 16.044 12.7585 16.122 13.4305 16.218C14.1025 16.314 14.4115 16.431 14.4115 16.899C14.4115 17.367 14.0185 17.625 13.3315 17.625ZM16.4575 15C16.4575 15.0825 16.4331 15.1631 16.3873 15.2317C16.3414 15.3003 16.2763 15.3537 16.2001 15.3853C16.1239 15.4168 16.0401 15.4251 15.9592 15.409C15.8783 15.3929 15.804 15.3532 15.7457 15.2949C15.6874 15.2366 15.6477 15.1623 15.6316 15.0814C15.6155 15.0005 15.6237 14.9166 15.6553 14.8404C15.6869 14.7642 15.7403 14.6991 15.8089 14.6533C15.8774 14.6075 15.9581 14.583 16.0405 14.583C16.1511 14.583 16.2572 14.6269 16.3354 14.7051C16.4136 14.7833 16.4575 14.8894 16.4575 15ZM15.6895 15C15.6895 15.0926 15.7261 15.1814 15.7913 15.2471C15.8565 15.3129 15.945 15.3502 16.0375 15.351C16.0844 15.3518 16.131 15.3434 16.1746 15.3261C16.2182 15.3089 16.258 15.2833 16.2918 15.2507C16.3255 15.2181 16.3524 15.1792 16.3711 15.1362C16.3898 15.0932 16.3998 15.0469 16.4005 15C16.4005 14.9069 16.3636 14.8176 16.2977 14.7518C16.2319 14.686 16.1426 14.649 16.0495 14.649C15.9565 14.649 15.8672 14.686 15.8014 14.7518C15.7355 14.8176 15.6985 14.9069 15.6985 15H15.6895ZM15.8815 14.766H16.0435C16.1005 14.766 16.2085 14.766 16.2085 14.889C16.2111 14.9159 16.2032 14.9428 16.1864 14.9641C16.1697 14.9853 16.1453 14.9993 16.1185 15.003C16.1845 15.003 16.1875 15.051 16.1965 15.111C16.2002 15.1527 16.2083 15.194 16.2205 15.234H16.1215C16.1215 15.213 16.1035 15.093 16.1035 15.087C16.1035 15.081 16.1035 15.045 16.0555 15.045H15.9745V15.234H15.8815V14.766ZM15.9715 14.97H16.0435C16.0528 14.9714 16.0622 14.9706 16.0712 14.9679C16.0801 14.9651 16.0883 14.9604 16.0952 14.9541C16.1021 14.9478 16.1075 14.94 16.111 14.9313C16.1145 14.9227 16.1161 14.9133 16.1155 14.904C16.1155 14.841 16.0705 14.841 16.0465 14.841H15.9715V14.97Z" fill="#679E63"/>
<path fill-rule="evenodd" clip-rule="evenodd" d="M5.9518 9.56393C5.95189 9.51493 5.93922 9.46675 5.91502 9.42414C5.89082 9.38152 5.85593 9.34595 5.8138 9.32093L3.5158 8.00093C3.47658 7.9777 3.43232 7.96432 3.3868 7.96193H3.3658C3.32028 7.96432 3.27602 7.9777 3.2368 8.00093L0.9388 9.32093C0.896667 9.34595 0.861782 9.38152 0.837583 9.42414C0.813384 9.46675 0.800706 9.51493 0.8008 9.56393V13.1249C0.800398 13.1493 0.806601 13.1733 0.818749 13.1944C0.830897 13.2156 0.848538 13.233 0.8698 13.2449C0.890874 13.2568 0.914634 13.263 0.9388 13.263C0.962965 13.263 0.986725 13.2568 1.0078 13.2449L2.3728 12.4619C2.4149 12.4376 2.44983 12.4026 2.47407 12.3605C2.4983 12.3183 2.51097 12.2705 2.5108 12.2219V10.5569C2.51122 10.5084 2.52415 10.4609 2.54832 10.4188C2.57249 10.3768 2.6071 10.3417 2.6488 10.3169L3.2308 9.98093C3.27413 9.95754 3.32256 9.94518 3.3718 9.94493C3.42002 9.94566 3.46736 9.95801 3.5098 9.98093L4.1008 10.3169C4.14325 10.3411 4.17862 10.376 4.20337 10.4181C4.22811 10.4602 4.24136 10.5081 4.2418 10.5569V12.2219C4.24163 12.2705 4.2543 12.3183 4.27853 12.3605C4.30276 12.4026 4.3377 12.4376 4.3798 12.4619L5.7448 13.2449C5.76581 13.2571 5.78966 13.2634 5.81392 13.2634C5.83819 13.2634 5.86202 13.257 5.88301 13.2448C5.904 13.2326 5.92142 13.2151 5.93349 13.1941C5.94557 13.1731 5.95189 13.1492 5.9518 13.1249V9.56393ZM17.0008 4.66793C16.9799 4.65653 16.9563 4.65075 16.9325 4.65114C16.9087 4.65154 16.8854 4.65809 16.8648 4.67018C16.8443 4.68226 16.8272 4.69946 16.8153 4.72009C16.8034 4.74073 16.797 4.7641 16.7968 4.78793V8.31593C16.7963 8.33316 16.7914 8.34997 16.7825 8.36471C16.7735 8.37944 16.7609 8.39158 16.7458 8.39993C16.7313 8.40866 16.7147 8.41328 16.6978 8.41328C16.6809 8.41328 16.6643 8.40866 16.6498 8.39993L16.0738 8.06693C16.0318 8.04271 15.9842 8.02995 15.9358 8.02995C15.8874 8.02995 15.8398 8.04271 15.7978 8.06693L13.4968 9.39293C13.4549 9.41747 13.4201 9.45252 13.3959 9.49461C13.3717 9.5367 13.3589 9.58438 13.3588 9.63293V12.2999C13.3587 12.3489 13.3714 12.3971 13.3956 12.4397C13.4198 12.4823 13.4547 12.5179 13.4968 12.5429L15.8008 13.8569C15.8424 13.8821 15.8902 13.8954 15.9388 13.8954C15.9874 13.8954 16.0352 13.8821 16.0768 13.8569L18.3778 12.5309C18.4199 12.5059 18.4548 12.4703 18.479 12.4277C18.5032 12.3851 18.5159 12.3369 18.5158 12.2879V5.68793C18.5157 5.63866 18.5022 5.59033 18.4769 5.54807C18.4515 5.50582 18.4152 5.47122 18.3718 5.44793L17.0008 4.66793ZM16.7878 11.4179C16.788 11.4299 16.7851 11.4418 16.7793 11.4523C16.7735 11.4628 16.765 11.4717 16.7548 11.4779L15.9658 11.9309C15.9557 11.938 15.9436 11.9418 15.9313 11.9418C15.919 11.9418 15.9069 11.938 15.8968 11.9309L15.1108 11.4779C15.1006 11.4717 15.0921 11.4628 15.0863 11.4523C15.0805 11.4418 15.0776 11.4299 15.0778 11.4179V10.4999C15.0776 10.4879 15.0805 10.4761 15.0863 10.4655C15.0921 10.455 15.1006 10.4462 15.1108 10.4399L15.9028 9.98393C15.9134 9.97815 15.9252 9.97513 15.9373 9.97513C15.9494 9.97513 15.9612 9.97815 15.9718 9.98393L16.7608 10.4399C16.771 10.4462 16.7795 10.455 16.7853 10.4655C16.7911 10.4761 16.794 10.4879 16.7938 10.4999L16.7878 11.4179ZM24.6628 10.4819C24.7047 10.4574 24.7395 10.4223 24.7637 10.3803C24.7879 10.3382 24.8007 10.2905 24.8008 10.2419V9.59993C24.8007 9.55138 24.7879 9.5037 24.7637 9.46161C24.7395 9.41952 24.7047 9.38447 24.6628 9.35993L22.3798 8.03393C22.3376 8.00884 22.2894 7.9956 22.2403 7.9956C22.1912 7.9956 22.143 8.00884 22.1008 8.03393L19.8028 9.35993C19.7605 9.384 19.7254 9.41894 19.7011 9.46114C19.6769 9.50334 19.6643 9.55126 19.6648 9.59993V12.2519C19.6647 12.3009 19.6774 12.3491 19.7016 12.3917C19.7258 12.4343 19.7607 12.4699 19.8028 12.4949L22.1008 13.7999C22.1418 13.8236 22.1884 13.8361 22.2358 13.8361C22.2832 13.8361 22.3298 13.8236 22.3708 13.7999L23.7538 13.0319C23.7748 13.0195 23.7924 13.002 23.805 12.981C23.8176 12.9601 23.8247 12.9363 23.8258 12.9119C23.8258 12.8869 23.8191 12.8623 23.8065 12.8407C23.7938 12.819 23.7756 12.8012 23.7538 12.7889L21.4288 11.4599C21.4079 11.4476 21.3906 11.43 21.3786 11.409C21.3665 11.388 21.36 11.3642 21.3598 11.3399V10.4999C21.3597 10.4756 21.366 10.4517 21.3782 10.4307C21.3903 10.4096 21.4077 10.3921 21.4288 10.3799L22.1488 9.96293C22.1699 9.95111 22.1936 9.9449 22.2178 9.9449C22.242 9.9449 22.2657 9.95111 22.2868 9.96293L23.0008 10.3889C23.0226 10.4004 23.0409 10.4177 23.0536 10.4389C23.0663 10.46 23.0729 10.4843 23.0728 10.5089V11.1629C23.0727 11.1872 23.079 11.2111 23.0911 11.2321C23.1032 11.2531 23.1206 11.2706 23.1416 11.2828C23.1626 11.295 23.1864 11.3014 23.2107 11.3014C23.2349 11.3014 23.2588 11.2951 23.2798 11.2829L24.6628 10.4819Z" fill="#333333"/>
<path fill-rule="evenodd" clip-rule="evenodd" d="M22.2063 10.3591C22.2141 10.3533 22.2235 10.3501 22.2333 10.3501C22.243 10.3501 22.2525 10.3533 22.2603 10.3591L22.7013 10.6111C22.709 10.6167 22.7154 10.6239 22.72 10.6321C22.7247 10.6404 22.7275 10.6496 22.7283 10.6591V11.1691C22.7277 11.1782 22.725 11.1871 22.7203 11.1949C22.7156 11.2027 22.7091 11.2093 22.7013 11.2141L22.2603 11.4691C22.252 11.4736 22.2427 11.4759 22.2333 11.4759C22.2239 11.4759 22.2146 11.4736 22.2063 11.4691L21.7653 11.2141C21.7575 11.2093 21.751 11.2027 21.7463 11.1949C21.7416 11.1871 21.7388 11.1782 21.7383 11.1691V10.6591C21.7391 10.6496 21.7419 10.6404 21.7465 10.6321C21.7512 10.6239 21.7576 10.6167 21.7653 10.6111L22.2063 10.3591Z" fill="#679E63"/>
<path fill-rule="evenodd" clip-rule="evenodd" d="M9.80158 8.04608C9.75943 8.02243 9.71191 8.01001 9.66358 8.01001C9.61525 8.01001 9.56773 8.02243 9.52558 8.04608L7.23958 9.36608C7.19816 9.38965 7.16362 9.42365 7.13941 9.4647C7.1152 9.50575 7.10216 9.55243 7.10158 9.60008V12.2401C7.101 12.2884 7.11353 12.3359 7.13783 12.3777C7.16213 12.4194 7.1973 12.4538 7.23958 12.4771L9.52258 13.8001C9.56456 13.8258 9.61284 13.8394 9.66208 13.8394C9.71132 13.8394 9.7596 13.8258 9.80158 13.8001L12.0846 12.4801C12.1269 12.4568 12.162 12.4224 12.1863 12.3807C12.2106 12.3389 12.2232 12.2914 12.2226 12.2431V9.60008C12.2231 9.55141 12.2105 9.50349 12.1863 9.46129C12.162 9.41909 12.1269 9.38415 12.0846 9.36008L9.80158 8.04608Z" fill="url(#paint0_linear_138_8017)"/>
<path d="M12.0864 9.36604L9.80044 8.04604C9.7775 8.03443 9.75335 8.02538 9.72844 8.01904L7.14844 12.42C7.16937 12.4466 7.19603 12.4682 7.22644 12.483L9.52144 13.8C9.55314 13.819 9.58844 13.8312 9.6251 13.8359C9.66177 13.8405 9.699 13.8375 9.73444 13.827L12.1344 9.41104C12.1201 9.39433 12.104 9.37924 12.0864 9.36604Z" fill="url(#paint1_linear_138_8017)"/>
<path d="M9.44406 7.56006L9.41406 7.58106H9.45606L9.44406 7.56006Z" fill="url(#paint2_linear_138_8017)"/>
<path d="M12.0863 12.483C12.1197 12.4651 12.1491 12.4404 12.1723 12.4104C12.1956 12.3804 12.2123 12.3459 12.2213 12.309L9.71028 8.01599C9.64381 8.00163 9.57436 8.01231 9.51528 8.04599L7.23828 9.357L9.69828 13.839C9.73428 13.832 9.76878 13.8188 9.80028 13.8L12.0863 12.483Z" fill="url(#paint3_linear_138_8017)"/>
<path d="M12.2982 12.441L12.2832 12.417V12.45L12.2982 12.441Z" fill="url(#paint4_linear_138_8017)"/>
<path d="M12.0853 12.483L9.79927 13.8C9.76757 13.8178 9.73307 13.83 9.69727 13.836L9.74227 13.92L12.2833 12.447V12.414L12.2203 12.3C12.2124 12.3385 12.1963 12.3748 12.173 12.4065C12.1497 12.4381 12.1197 12.4642 12.0853 12.483Z" fill="url(#paint5_linear_138_8017)"/>
<path d="M12.0853 12.483L9.79927 13.8C9.76757 13.8178 9.73307 13.83 9.69727 13.836L9.74227 13.92L12.2833 12.447V12.414L12.2203 12.3C12.2124 12.3385 12.1963 12.3748 12.173 12.4065C12.1497 12.4381 12.1197 12.4642 12.0853 12.483Z" fill="url(#paint6_linear_138_8017)"/>
</g>
<defs>
<linearGradient id="paint0_linear_138_8017" x1="10.5876" y1="9.03008" x2="8.52358" y2="13.2421" gradientUnits="userSpaceOnUse">
<stop stop-color="#3F873F"/>
<stop offset="0.33" stop-color="#3F8B3D"/>
<stop offset="0.64" stop-color="#3E9637"/>
<stop offset="0.93" stop-color="#3DA92E"/>
<stop offset="1" stop-color="#3DAE2B"/>
</linearGradient>
<linearGradient id="paint1_linear_138_8017" x1="9.31144" y1="11.235" x2="15.1044" y2="6.95104" gradientUnits="userSpaceOnUse">
<stop offset="0.14" stop-color="#3F873F"/>
<stop offset="0.4" stop-color="#529F44"/>
<stop offset="0.71" stop-color="#63B649"/>
<stop offset="0.91" stop-color="#6ABF4B"/>
</linearGradient>
<linearGradient id="paint2_linear_138_8017" x1="7.01704" y1="7.56906" x2="12.3001" y2="7.56906" gradientUnits="userSpaceOnUse">
<stop offset="0.09" stop-color="#6ABF4B"/>
<stop offset="0.29" stop-color="#63B649"/>
<stop offset="0.6" stop-color="#529F44"/>
<stop offset="0.86" stop-color="#3F873F"/>
</linearGradient>
<linearGradient id="paint3_linear_138_8017" x1="7.01628" y1="10.923" x2="12.2993" y2="10.923" gradientUnits="userSpaceOnUse">
<stop offset="0.09" stop-color="#6ABF4B"/>
<stop offset="0.29" stop-color="#63B649"/>
<stop offset="0.6" stop-color="#529F44"/>
<stop offset="0.86" stop-color="#3F873F"/>
</linearGradient>
<linearGradient id="paint4_linear_138_8017" x1="7.01488" y1="12.432" x2="12.2982" y2="12.432" gradientUnits="userSpaceOnUse">
<stop offset="0.09" stop-color="#6ABF4B"/>
<stop offset="0.29" stop-color="#63B649"/>
<stop offset="0.6" stop-color="#529F44"/>
<stop offset="0.86" stop-color="#3F873F"/>
</linearGradient>
<linearGradient id="paint5_linear_138_8017" x1="7.01527" y1="13.116" x2="12.2983" y2="13.116" gradientUnits="userSpaceOnUse">
<stop offset="0.09" stop-color="#6ABF4B"/>
<stop offset="0.29" stop-color="#63B649"/>
<stop offset="0.6" stop-color="#529F44"/>
<stop offset="0.86" stop-color="#3F873F"/>
</linearGradient>
<linearGradient id="paint6_linear_138_8017" x1="13.0693" y1="8.90405" x2="9.81126" y2="15.552" gradientUnits="userSpaceOnUse">
<stop stop-color="#3F873F"/>
<stop offset="0.33" stop-color="#3F8B3D"/>
<stop offset="0.64" stop-color="#3E9637"/>
<stop offset="0.93" stop-color="#3DA92E"/>
<stop offset="1" stop-color="#3DAE2B"/>
</linearGradient>
<clipPath id="clip0_138_8017">
<rect width="24" height="24" fill="white" transform="translate(0.800781)"/>
</clipPath>
</defs>
</svg>
