<svg width="25" height="24" viewBox="0 0 25 24" fill="none" xmlns="http://www.w3.org/2000/svg">
<g clip-path="url(#clip0_138_8032)">
<path d="M12.6591 3.72325e-07C11.7421 0.00112734 10.8269 0.0794034 9.92309 0.234C7.49909 0.663 7.06109 1.557 7.06109 3.21V5.4H12.8001V6.12H4.91009C3.24809 6.12 1.79009 7.119 1.33409 9.021C0.800094 11.202 0.800094 12.564 1.33409 14.841C1.74209 16.536 2.71409 17.745 4.37609 17.745H6.34709V15.129C6.36789 14.1888 6.75187 13.2931 7.41854 12.6298C8.08521 11.9665 8.98279 11.5871 9.92309 11.571H15.6411C16.02 11.5679 16.3945 11.4901 16.7433 11.3421C17.092 11.1941 17.4082 10.9788 17.6738 10.7086C17.9393 10.4383 18.1489 10.1184 18.2907 9.76704C18.4325 9.4157 18.5037 9.03986 18.5001 8.661V3.21C18.5001 1.659 17.1921 0.492 15.6381 0.234C14.6534 0.0730564 13.6569 -0.00521656 12.6591 3.72325e-07ZM9.56309 1.755C9.77967 1.75143 9.99242 1.81235 10.1743 1.93002C10.3561 2.04769 10.4989 2.21678 10.5844 2.4158C10.6699 2.61482 10.6943 2.83477 10.6545 3.04769C10.6146 3.2606 10.5124 3.45686 10.3607 3.6115C10.209 3.76614 10.0148 3.87218 9.80267 3.91614C9.59057 3.96009 9.37018 3.93997 9.16955 3.85833C8.96891 3.7767 8.79708 3.63724 8.67591 3.45769C8.55475 3.27814 8.48972 3.06661 8.48909 2.85C8.48669 2.56249 8.59841 2.28576 8.79974 2.08049C9.00107 1.87522 9.27559 1.75817 9.56309 1.755Z" fill="url(#paint0_linear_138_8032)"/>
<path d="M19.2185 6.12012V8.66112C19.2103 9.61286 18.8328 10.5242 18.1657 11.2031C17.4986 11.882 16.594 12.2753 15.6425 12.3001H9.9245C9.16206 12.3158 8.43594 12.6289 7.9012 13.1726C7.36646 13.7163 7.06547 14.4475 7.0625 15.2101V20.6551C7.0625 22.2061 8.4095 23.1181 9.9245 23.5621C11.7859 24.1454 13.7811 24.1454 15.6425 23.5621C17.0855 23.1451 18.5015 22.3051 18.5015 20.6551V18.4711H12.8015V17.7451H21.3695C23.0315 17.7451 23.6525 16.5841 24.2315 14.8411C24.8315 13.0411 24.8045 11.3221 24.2315 9.02112C23.8205 7.36512 23.0315 6.12012 21.3695 6.12012H19.2185ZM16.0025 19.9201C16.2193 19.9165 16.4323 19.9776 16.6143 20.0955C16.7963 20.2135 16.9391 20.3829 17.0244 20.5823C17.1097 20.7817 17.1338 21.0019 17.0935 21.215C17.0531 21.4281 16.9503 21.6244 16.798 21.7788C16.6457 21.9332 16.4509 22.0387 16.2384 22.082C16.0259 22.1253 15.8053 22.1043 15.6048 22.0217C15.4043 21.9392 15.2328 21.7988 15.1124 21.6184C14.992 21.4381 14.9279 21.226 14.9285 21.0091C14.9277 20.7232 15.0403 20.4486 15.2416 20.2456C15.443 20.0426 15.7166 19.9277 16.0025 19.9261V19.9201Z" fill="url(#paint1_linear_138_8032)"/>
</g>
<defs>
<linearGradient id="paint0_linear_138_8032" x1="0.245934" y1="0.82548" x2="13.4785" y2="12.0098" gradientUnits="userSpaceOnUse">
<stop stop-color="#5A9FD4"/>
<stop offset="1" stop-color="#306998"/>
</linearGradient>
<linearGradient id="paint1_linear_138_8032" x1="18.3241" y1="19.1517" x2="13.5583" y2="12.528" gradientUnits="userSpaceOnUse">
<stop stop-color="#FFD43B"/>
<stop offset="1" stop-color="#FFE873"/>
</linearGradient>
<clipPath id="clip0_138_8032">
<rect width="24" height="24" fill="white" transform="translate(0.800781)"/>
</clipPath>
</defs>
</svg>
