<svg width="196" height="202" viewBox="0 0 196 202" fill="none" xmlns="http://www.w3.org/2000/svg">
<g filter="url(#filter0_d_105_2124)">
<path d="M78 11.547C90.376 4.40169 105.624 4.40169 118 11.547L162.87 37.453C175.247 44.5983 182.87 57.8034 182.87 72.094V123.906C182.87 138.197 175.247 151.402 162.87 158.547L118 184.453C105.624 191.598 90.376 191.598 78 184.453L33.1295 158.547C20.7535 151.402 13.1295 138.197 13.1295 123.906V72.094C13.1295 57.8034 20.7535 44.5983 33.1295 37.453L78 11.547Z" fill="white"/>
</g>
<path d="M68.8375 129.4V142H70.3675V129.4H68.8375ZM78.4696 136.96V142H79.9096V136.78C79.9096 135.784 79.6516 134.998 79.1356 134.422C78.6316 133.834 77.9416 133.54 77.0656 133.54C76.5256 133.54 76.0456 133.66 75.6256 133.9C75.2176 134.14 74.8756 134.512 74.5996 135.016V133.72H73.1596V142H74.5996V136.96C74.5996 136.552 74.6836 136.192 74.8516 135.88C75.0316 135.568 75.2776 135.328 75.5896 135.16C75.9136 134.98 76.2856 134.89 76.7056 134.89C77.2816 134.89 77.7196 135.064 78.0196 135.412C78.3196 135.76 78.4696 136.276 78.4696 136.96ZM85.7652 139.156L81.6252 129.4H79.9152L85.7652 142.63L91.6152 129.4H89.9052L85.7652 139.156ZM93.058 130.3C93.058 130.564 93.154 130.798 93.346 131.002C93.55 131.194 93.784 131.29 94.048 131.29C94.324 131.29 94.558 131.194 94.75 131.002C94.942 130.798 95.038 130.564 95.038 130.3C95.038 130.024 94.942 129.79 94.75 129.598C94.558 129.406 94.324 129.31 94.048 129.31C93.784 129.31 93.55 129.406 93.346 129.598C93.154 129.79 93.058 130.024 93.058 130.3ZM93.328 133.72V142H94.768V133.72H93.328ZM98.0758 139.462L96.9418 140.164C97.0978 140.488 97.3258 140.806 97.6258 141.118C97.9378 141.43 98.3158 141.688 98.7598 141.892C99.2038 142.084 99.7018 142.18 100.254 142.18C101.106 142.18 101.79 141.94 102.306 141.46C102.834 140.98 103.098 140.38 103.098 139.66C103.098 139.168 102.978 138.766 102.738 138.454C102.51 138.142 102.198 137.878 101.802 137.662C101.406 137.434 100.968 137.224 100.488 137.032C100.2 136.912 99.9238 136.786 99.6598 136.654C99.3958 136.522 99.1798 136.372 99.0118 136.204C98.8438 136.036 98.7598 135.844 98.7598 135.628C98.7598 135.352 98.8678 135.148 99.0838 135.016C99.2998 134.884 99.5578 134.818 99.8578 134.818C100.29 134.818 100.674 134.92 101.01 135.124C101.358 135.328 101.646 135.586 101.874 135.898L103.026 135.16C102.858 134.848 102.624 134.572 102.324 134.332C102.024 134.092 101.676 133.9 101.28 133.756C100.896 133.612 100.482 133.54 100.038 133.54C99.5938 133.54 99.1618 133.618 98.7418 133.774C98.3338 133.93 97.9978 134.17 97.7338 134.494C97.4818 134.818 97.3558 135.226 97.3558 135.718C97.3558 136.198 97.4758 136.6 97.7158 136.924C97.9678 137.236 98.2738 137.494 98.6338 137.698C99.0058 137.89 99.3718 138.058 99.7318 138.202C100.056 138.322 100.362 138.454 100.65 138.598C100.938 138.73 101.172 138.898 101.352 139.102C101.544 139.294 101.64 139.534 101.64 139.822C101.64 140.146 101.52 140.404 101.28 140.596C101.052 140.776 100.734 140.866 100.326 140.866C99.9898 140.866 99.6778 140.806 99.3898 140.686C99.1138 140.554 98.8678 140.38 98.6518 140.164C98.4358 139.948 98.2438 139.714 98.0758 139.462ZM104.994 130.3C104.994 130.564 105.09 130.798 105.282 131.002C105.486 131.194 105.72 131.29 105.984 131.29C106.26 131.29 106.494 131.194 106.686 131.002C106.878 130.798 106.974 130.564 106.974 130.3C106.974 130.024 106.878 129.79 106.686 129.598C106.494 129.406 106.26 129.31 105.984 129.31C105.72 129.31 105.486 129.406 105.282 129.598C105.09 129.79 104.994 130.024 104.994 130.3ZM105.264 133.72V142H106.704V133.72H105.264ZM108.949 137.86C108.949 138.688 109.135 139.432 109.507 140.092C109.891 140.74 110.407 141.25 111.055 141.622C111.703 141.994 112.429 142.18 113.233 142.18C114.049 142.18 114.775 141.994 115.411 141.622C116.059 141.25 116.569 140.74 116.941 140.092C117.325 139.432 117.517 138.688 117.517 137.86C117.517 137.02 117.325 136.276 116.941 135.628C116.569 134.98 116.059 134.47 115.411 134.098C114.775 133.726 114.049 133.54 113.233 133.54C112.429 133.54 111.703 133.726 111.055 134.098C110.407 134.47 109.891 134.98 109.507 135.628C109.135 136.276 108.949 137.02 108.949 137.86ZM110.407 137.86C110.407 137.284 110.527 136.774 110.767 136.33C111.019 135.874 111.355 135.52 111.775 135.268C112.207 135.016 112.693 134.89 113.233 134.89C113.773 134.89 114.253 135.016 114.673 135.268C115.105 135.52 115.441 135.874 115.681 136.33C115.933 136.774 116.059 137.284 116.059 137.86C116.059 138.436 115.933 138.946 115.681 139.39C115.441 139.834 115.105 140.188 114.673 140.452C114.253 140.704 113.773 140.83 113.233 140.83C112.693 140.83 112.207 140.704 111.775 140.452C111.355 140.188 111.019 139.834 110.767 139.39C110.527 138.946 110.407 138.436 110.407 137.86ZM124.806 136.96V142H126.246V136.78C126.246 135.784 125.988 134.998 125.472 134.422C124.968 133.834 124.278 133.54 123.402 133.54C122.862 133.54 122.382 133.66 121.962 133.9C121.554 134.14 121.212 134.512 120.936 135.016V133.72H119.496V142H120.936V136.96C120.936 136.552 121.02 136.192 121.188 135.88C121.368 135.568 121.614 135.328 121.926 135.16C122.25 134.98 122.622 134.89 123.042 134.89C123.618 134.89 124.056 135.064 124.356 135.412C124.656 135.76 124.806 136.276 124.806 136.96Z" fill="#424254"/>
<path d="M68 105C68 107.761 70.2386 110 73 110H123C125.761 110 128 107.761 128 105V55C128 52.2386 125.761 50 123 50H73C70.2386 50 68 52.2386 68 55V105Z" fill="#FF3366"/>
<path d="M87.2444 70.411C89.1682 70.411 90.7422 69.0288 90.7422 66.9555C90.7422 65.055 89.1682 63.5 87.2444 63.5C85.3206 63.5 83.7466 64.8822 83.7466 66.9555C83.7466 69.0288 85.3206 70.411 87.2444 70.411ZM79.8991 88.7251C79.7242 89.589 79.5493 90.4529 79.5493 91.3168C79.5493 94.2539 81.1233 96.3272 84.6211 96.3272C87.5942 96.3272 89.8677 94.5995 91.6166 91.8351L90.5673 95.9817H96.3386L99.6614 83.0236C100.536 79.7408 102.11 78.0131 104.558 78.0131C106.482 78.0131 107.706 79.2225 107.706 81.123C107.706 81.6414 107.706 82.3325 107.531 83.0236L105.783 89.0707C105.608 89.9346 105.433 90.7984 105.433 91.6623C105.433 94.4267 107.182 96.5 110.679 96.5C113.652 96.5 116.101 94.5995 117.5 89.9346L115.226 89.0707C114.177 92.1806 113.128 92.699 112.428 92.699C111.729 92.699 111.204 92.1806 111.204 91.144C111.204 90.6257 111.379 90.1073 111.379 89.589L112.953 83.7147C113.303 82.3325 113.478 81.123 113.478 80.0864C113.478 75.767 110.854 73.5209 107.531 73.5209C104.558 73.5209 101.41 76.2853 99.8363 79.0497L100.886 74.0393H92.1413L90.917 78.5314H94.9395L92.491 88.034C90.5673 92.3534 86.8946 92.5262 86.37 92.3534C85.6704 92.1806 85.1457 91.8351 85.1457 90.9712C85.1457 90.4529 85.3206 89.589 85.4955 88.7251L89.343 73.6937H79.7242L78.5 78.1859H82.5224L79.8991 88.7251Z" fill="white"/>
<defs>
<filter id="filter0_d_105_2124" x="5.12988" y="2.18799" width="185.74" height="199.624" filterUnits="userSpaceOnUse" color-interpolation-filters="sRGB">
<feFlood flood-opacity="0" result="BackgroundImageFix"/>
<feColorMatrix in="SourceAlpha" type="matrix" values="0 0 0 0 0 0 0 0 0 0 0 0 0 0 0 0 0 0 127 0" result="hardAlpha"/>
<feOffset dy="4"/>
<feGaussianBlur stdDeviation="4"/>
<feColorMatrix type="matrix" values="0 0 0 0 0.0627451 0 0 0 0 0.0941176 0 0 0 0 0.156863 0 0 0 0.04 0"/>
<feBlend mode="normal" in2="BackgroundImageFix" result="effect1_dropShadow_105_2124"/>
<feBlend mode="normal" in="SourceGraphic" in2="effect1_dropShadow_105_2124" result="shape"/>
</filter>
</defs>
</svg>
