<svg width="196" height="202" viewBox="0 0 196 202" fill="none" xmlns="http://www.w3.org/2000/svg">
<g filter="url(#filter0_d_105_2067)">
<path d="M78 11.547C90.376 4.40169 105.624 4.40169 118 11.547L162.87 37.453C175.247 44.5983 182.87 57.8034 182.87 72.094V123.906C182.87 138.197 175.247 151.402 162.87 158.547L118 184.453C105.624 191.598 90.376 191.598 78 184.453L33.1295 158.547C20.7535 151.402 13.1295 138.197 13.1295 123.906V72.094C13.1295 57.8034 20.7535 44.5983 33.1295 37.453L78 11.547Z" fill="white"/>
</g>
<path d="M79.1939 132.4V141.778L69.6539 131.77V145H71.1839V135.622L80.7239 145.63V132.4H79.1939ZM82.8009 140.86C82.8009 141.688 82.9869 142.432 83.3589 143.092C83.7429 143.74 84.2589 144.25 84.9069 144.622C85.5549 144.994 86.2809 145.18 87.0849 145.18C87.9009 145.18 88.6269 144.994 89.2629 144.622C89.9109 144.25 90.4209 143.74 90.7929 143.092C91.1769 142.432 91.3689 141.688 91.3689 140.86C91.3689 140.02 91.1769 139.276 90.7929 138.628C90.4209 137.98 89.9109 137.47 89.2629 137.098C88.6269 136.726 87.9009 136.54 87.0849 136.54C86.2809 136.54 85.5549 136.726 84.9069 137.098C84.2589 137.47 83.7429 137.98 83.3589 138.628C82.9869 139.276 82.8009 140.02 82.8009 140.86ZM84.2589 140.86C84.2589 140.284 84.3789 139.774 84.6189 139.33C84.8709 138.874 85.2069 138.52 85.6269 138.268C86.0589 138.016 86.5449 137.89 87.0849 137.89C87.6249 137.89 88.1049 138.016 88.5249 138.268C88.9569 138.52 89.2929 138.874 89.5329 139.33C89.7849 139.774 89.9109 140.284 89.9109 140.86C89.9109 141.436 89.7849 141.946 89.5329 142.39C89.2929 142.834 88.9569 143.188 88.5249 143.452C88.1049 143.704 87.6249 143.83 87.0849 143.83C86.5449 143.83 86.0589 143.704 85.6269 143.452C85.2069 143.188 84.8709 142.834 84.6189 142.39C84.3789 141.946 84.2589 141.436 84.2589 140.86ZM99.5571 130.96V145H100.997V130.96H99.5571ZM92.6271 140.86C92.6271 141.748 92.8131 142.516 93.1851 143.164C93.5571 143.812 94.0551 144.31 94.6791 144.658C95.3031 145.006 95.9871 145.18 96.7311 145.18C97.4271 145.18 98.0331 145.006 98.5491 144.658C99.0651 144.31 99.4671 143.812 99.7551 143.164C100.055 142.516 100.205 141.748 100.205 140.86C100.205 139.96 100.055 139.192 99.7551 138.556C99.4671 137.908 99.0651 137.41 98.5491 137.062C98.0331 136.714 97.4271 136.54 96.7311 136.54C95.9871 136.54 95.3031 136.714 94.6791 137.062C94.0551 137.41 93.5571 137.908 93.1851 138.556C92.8131 139.192 92.6271 139.96 92.6271 140.86ZM94.0851 140.86C94.0851 140.224 94.2111 139.684 94.4631 139.24C94.7271 138.796 95.0751 138.46 95.5071 138.232C95.9391 138.004 96.4071 137.89 96.9111 137.89C97.3311 137.89 97.7451 138.004 98.1531 138.232C98.5611 138.46 98.8971 138.796 99.1611 139.24C99.4251 139.684 99.5571 140.224 99.5571 140.86C99.5571 141.496 99.4251 142.036 99.1611 142.48C98.8971 142.924 98.5611 143.26 98.1531 143.488C97.7451 143.716 97.3311 143.83 96.9111 143.83C96.4071 143.83 95.9391 143.716 95.5071 143.488C95.0751 143.26 94.7271 142.924 94.4631 142.48C94.2111 142.036 94.0851 141.496 94.0851 140.86ZM106.817 145.18C107.705 145.18 108.473 145.006 109.121 144.658C109.781 144.298 110.327 143.77 110.759 143.074L109.589 142.336C109.289 142.84 108.923 143.218 108.491 143.47C108.059 143.71 107.561 143.83 106.997 143.83C106.433 143.83 105.953 143.71 105.557 143.47C105.161 143.23 104.861 142.882 104.657 142.426C104.453 141.97 104.351 141.418 104.351 140.77C104.363 140.134 104.471 139.6 104.675 139.168C104.891 138.724 105.191 138.388 105.575 138.16C105.971 137.92 106.445 137.8 106.997 137.8C107.465 137.8 107.873 137.902 108.221 138.106C108.569 138.31 108.839 138.592 109.031 138.952C109.235 139.312 109.337 139.738 109.337 140.23C109.337 140.314 109.319 140.422 109.283 140.554C109.247 140.674 109.211 140.764 109.175 140.824L109.751 139.996H103.811V141.22H110.885C110.885 141.196 110.885 141.142 110.885 141.058C110.897 140.962 110.903 140.872 110.903 140.788C110.903 139.912 110.747 139.156 110.435 138.52C110.123 137.884 109.673 137.398 109.085 137.062C108.509 136.714 107.813 136.54 106.997 136.54C106.181 136.54 105.461 136.72 104.837 137.08C104.225 137.44 103.745 137.944 103.397 138.592C103.061 139.24 102.893 139.996 102.893 140.86C102.893 141.712 103.055 142.462 103.379 143.11C103.715 143.758 104.177 144.268 104.765 144.64C105.365 145 106.049 145.18 106.817 145.18ZM112.34 144.28C112.34 144.544 112.436 144.778 112.628 144.982C112.832 145.174 113.066 145.27 113.33 145.27C113.606 145.27 113.84 145.174 114.032 144.982C114.224 144.778 114.32 144.544 114.32 144.28C114.32 144.004 114.224 143.77 114.032 143.578C113.84 143.386 113.606 143.29 113.33 143.29C113.066 143.29 112.832 143.386 112.628 143.578C112.436 143.77 112.34 144.004 112.34 144.28ZM117.142 133.3C117.142 133.564 117.238 133.792 117.43 133.984C117.622 134.176 117.85 134.272 118.114 134.272C118.39 134.272 118.618 134.176 118.798 133.984C118.99 133.792 119.086 133.564 119.086 133.3C119.086 133.024 118.99 132.796 118.798 132.616C118.618 132.424 118.39 132.328 118.114 132.328C117.85 132.328 117.622 132.424 117.43 132.616C117.238 132.796 117.142 133.024 117.142 133.3ZM115.72 147.052L114.928 148.24C115.048 148.396 115.186 148.528 115.342 148.636C115.498 148.744 115.672 148.822 115.864 148.87C116.056 148.93 116.272 148.96 116.512 148.96C117.016 148.96 117.448 148.846 117.808 148.618C118.168 148.39 118.438 148.06 118.618 147.628C118.81 147.196 118.906 146.68 118.906 146.08V136.72H117.466V145.9C117.466 146.284 117.436 146.596 117.376 146.836C117.316 147.076 117.22 147.25 117.088 147.358C116.968 147.466 116.806 147.52 116.602 147.52C116.41 147.52 116.236 147.478 116.08 147.394C115.936 147.31 115.816 147.196 115.72 147.052ZM122.218 142.462L121.084 143.164C121.24 143.488 121.468 143.806 121.768 144.118C122.08 144.43 122.458 144.688 122.902 144.892C123.346 145.084 123.844 145.18 124.396 145.18C125.248 145.18 125.932 144.94 126.448 144.46C126.976 143.98 127.24 143.38 127.24 142.66C127.24 142.168 127.12 141.766 126.88 141.454C126.652 141.142 126.34 140.878 125.944 140.662C125.548 140.434 125.11 140.224 124.63 140.032C124.342 139.912 124.066 139.786 123.802 139.654C123.538 139.522 123.322 139.372 123.154 139.204C122.986 139.036 122.902 138.844 122.902 138.628C122.902 138.352 123.01 138.148 123.226 138.016C123.442 137.884 123.7 137.818 124 137.818C124.432 137.818 124.816 137.92 125.152 138.124C125.5 138.328 125.788 138.586 126.016 138.898L127.168 138.16C127 137.848 126.766 137.572 126.466 137.332C126.166 137.092 125.818 136.9 125.422 136.756C125.038 136.612 124.624 136.54 124.18 136.54C123.736 136.54 123.304 136.618 122.884 136.774C122.476 136.93 122.14 137.17 121.876 137.494C121.624 137.818 121.498 138.226 121.498 138.718C121.498 139.198 121.618 139.6 121.858 139.924C122.11 140.236 122.416 140.494 122.776 140.698C123.148 140.89 123.514 141.058 123.874 141.202C124.198 141.322 124.504 141.454 124.792 141.598C125.08 141.73 125.314 141.898 125.494 142.102C125.686 142.294 125.782 142.534 125.782 142.822C125.782 143.146 125.662 143.404 125.422 143.596C125.194 143.776 124.876 143.866 124.468 143.866C124.132 143.866 123.82 143.806 123.532 143.686C123.256 143.554 123.01 143.38 122.794 143.164C122.578 142.948 122.386 142.714 122.218 142.462Z" fill="#424254"/>
<g clip-path="url(#clip0_105_2067)">
<path d="M97.6552 101.375C97.4545 101.375 97.2575 101.321 97.0852 101.218L95.2777 100.153C95.0077 100.003 95.1427 99.9426 95.2327 99.9126C95.5199 99.8257 95.7946 99.7022 96.0502 99.5451C96.071 99.5339 96.0942 99.5281 96.1177 99.5281C96.1413 99.5281 96.1645 99.5339 96.1852 99.5451L97.5727 100.37C97.5978 100.385 97.6263 100.392 97.6552 100.392C97.6842 100.392 97.7127 100.385 97.7377 100.37L103.16 97.2501C103.184 97.2346 103.204 97.2136 103.219 97.1888C103.233 97.1641 103.241 97.1362 103.243 97.1076V90.8526C103.241 90.823 103.233 90.7941 103.219 90.7681C103.205 90.7421 103.184 90.7197 103.16 90.7026L97.7377 87.5751C97.7127 87.5606 97.6842 87.553 97.6552 87.553C97.6263 87.553 97.5978 87.5606 97.5727 87.5751L92.1577 90.7026C92.1321 90.7183 92.111 90.7403 92.0966 90.7666C92.0821 90.793 92.0747 90.8226 92.0752 90.8526V97.1076C92.0745 97.1367 92.0818 97.1653 92.0964 97.1905C92.1109 97.2156 92.1322 97.2363 92.1577 97.2501L93.6577 98.1051C94.4602 98.5101 94.9552 98.0376 94.9552 97.5576V91.3851C94.9552 91.3433 94.9718 91.3033 95.0014 91.2737C95.0309 91.2442 95.071 91.2276 95.1127 91.2276H95.8027C95.8234 91.2276 95.8439 91.2317 95.863 91.2396C95.8821 91.2475 95.8995 91.2591 95.9141 91.2737C95.9287 91.2884 95.9403 91.3057 95.9482 91.3248C95.9562 91.3439 95.9602 91.3644 95.9602 91.3851V97.5576C95.99 97.7794 95.9698 98.0051 95.901 98.2182C95.8322 98.4312 95.7167 98.6261 95.5628 98.7886C95.4089 98.9512 95.2205 99.0772 95.0116 99.1575C94.8026 99.2378 94.5784 99.2703 94.3552 99.2526C93.9133 99.2602 93.4785 99.1404 93.1027 98.9076L91.6852 98.0901C91.5121 97.991 91.3682 97.848 91.2682 97.6755C91.1681 97.503 91.1153 97.3071 91.1152 97.1076V90.8526C91.1155 90.6522 91.1683 90.4553 91.2683 90.2816C91.3683 90.1079 91.512 89.9635 91.6852 89.8626L97.0852 86.7501C97.2599 86.6543 97.456 86.604 97.6552 86.604C97.8545 86.604 98.0505 86.6543 98.2252 86.7501L103.648 89.8776C103.819 89.98 103.961 90.125 104.059 90.2985C104.158 90.472 104.21 90.668 104.21 90.8676V97.1226C104.21 97.3212 104.158 97.5163 104.06 97.6886C103.961 97.8609 103.819 98.0045 103.648 98.1051L98.2252 101.218C98.0534 101.322 97.8561 101.376 97.6552 101.375Z" fill="#679E63"/>
<path d="M99.3279 97.0625C96.9579 97.0625 96.4629 95.975 96.4629 95.0675C96.4629 95.0257 96.4795 94.9857 96.509 94.9562C96.5386 94.9266 96.5786 94.91 96.6204 94.91H97.3179C97.3549 94.9093 97.3911 94.9218 97.4199 94.9451C97.4487 94.9684 97.4683 95.0011 97.4754 95.0375C97.5804 95.7875 97.8954 96.11 99.3279 96.11C100.468 96.11 100.955 95.855 100.955 95.2475C100.955 94.9025 100.82 94.64 99.0429 94.4975C97.5429 94.3475 96.6429 94.025 96.6429 92.84C96.6429 91.655 97.5654 91.0925 99.1104 91.0925C100.85 91.0925 101.705 91.6925 101.818 92.99C101.817 93.0341 101.802 93.0765 101.773 93.11C101.758 93.1249 101.741 93.1366 101.721 93.1444C101.702 93.1521 101.681 93.1558 101.66 93.155H100.955C100.92 93.1557 100.886 93.1441 100.859 93.1222C100.831 93.1003 100.812 93.0694 100.805 93.035C100.633 92.285 100.228 92.045 99.1104 92.045C97.8654 92.045 97.7229 92.48 97.7229 92.795C97.7229 93.11 97.8954 93.305 99.5754 93.545C101.255 93.785 102.028 94.0775 102.028 95.2475C102.028 96.4175 101.045 97.0625 99.3279 97.0625ZM107.143 90.5C107.143 90.7062 107.082 90.9078 106.967 91.0792C106.853 91.2506 106.69 91.3843 106.499 91.4632C106.309 91.5421 106.099 91.5627 105.897 91.5225C105.695 91.4823 105.509 91.383 105.363 91.2372C105.217 91.0914 105.118 90.9056 105.078 90.7034C105.038 90.5012 105.058 90.2916 105.137 90.1011C105.216 89.9106 105.35 89.7478 105.521 89.6332C105.693 89.5187 105.894 89.4575 106.1 89.4575C106.377 89.4575 106.642 89.5674 106.838 89.7629C107.033 89.9584 107.143 90.2235 107.143 90.5ZM105.223 90.5C105.223 90.7315 105.314 90.9535 105.477 91.1179C105.64 91.2822 105.861 91.3755 106.093 91.3775C106.21 91.3795 106.327 91.3584 106.436 91.3154C106.545 91.2723 106.644 91.2082 106.728 91.1268C106.813 91.0453 106.88 90.948 106.927 90.8404C106.973 90.7329 106.998 90.6172 107 90.5C107 90.2673 106.908 90.0441 106.743 89.8795C106.579 89.715 106.356 89.6225 106.123 89.6225C105.89 89.6225 105.667 89.715 105.502 89.8795C105.338 90.0441 105.245 90.2673 105.245 90.5H105.223ZM105.703 89.915H106.108C106.25 89.915 106.52 89.915 106.52 90.2225C106.527 90.2899 106.507 90.3571 106.465 90.4102C106.423 90.4633 106.362 90.4982 106.295 90.5075C106.46 90.5075 106.468 90.6275 106.49 90.7775C106.5 90.8818 106.52 90.9849 106.55 91.085H106.303C106.303 91.0325 106.258 90.7325 106.258 90.7175C106.258 90.7025 106.258 90.6125 106.138 90.6125H105.935V91.085H105.703V89.915ZM105.928 90.425H106.108C106.131 90.4284 106.155 90.4266 106.177 90.4197C106.199 90.4128 106.22 90.4011 106.237 90.3853C106.254 90.3695 106.268 90.35 106.277 90.3284C106.285 90.3067 106.289 90.2834 106.288 90.26C106.288 90.1025 106.175 90.1025 106.115 90.1025H105.928V90.425Z" fill="#679E63"/>
<path fill-rule="evenodd" clip-rule="evenodd" d="M80.8775 76.91C80.8778 76.7874 80.8461 76.667 80.7856 76.5605C80.7251 76.4539 80.6379 76.365 80.5325 76.3025L74.7875 73.0025C74.6895 72.9444 74.5788 72.9109 74.465 72.905H74.4125C74.2987 72.9109 74.1881 72.9444 74.09 73.0025L68.345 76.3025C68.2397 76.365 68.1525 76.4539 68.092 76.5605C68.0315 76.667 67.9998 76.7874 68 76.91V85.8125C67.999 85.8734 68.0145 85.9334 68.0449 85.9862C68.0753 86.0391 68.1194 86.0827 68.1725 86.1125C68.2252 86.142 68.2846 86.1575 68.345 86.1575C68.4055 86.1575 68.4649 86.142 68.5175 86.1125L71.93 84.155C72.0353 84.0942 72.1226 84.0067 72.1832 83.9013C72.2438 83.796 72.2755 83.6765 72.275 83.555V79.3925C72.2761 79.2712 72.3084 79.1523 72.3688 79.0472C72.4293 78.9421 72.5158 78.8544 72.62 78.7925L74.075 77.9525C74.1834 77.894 74.3044 77.8631 74.4275 77.8625C74.5481 77.8643 74.6665 77.8952 74.7725 77.9525L76.25 78.7925C76.3562 78.8528 76.4446 78.9401 76.5065 79.0454C76.5683 79.1506 76.6015 79.2703 76.6025 79.3925V83.555C76.6021 83.6765 76.6338 83.796 76.6944 83.9013C76.755 84.0067 76.8423 84.0942 76.9475 84.155L80.36 86.1125C80.4126 86.1428 80.4722 86.1587 80.5329 86.1587C80.5935 86.1586 80.6531 86.1426 80.7056 86.1121C80.7581 86.0817 80.8016 86.038 80.8318 85.9854C80.862 85.9328 80.8778 85.8731 80.8775 85.8125V76.91ZM108.5 64.67C108.448 64.6415 108.389 64.627 108.329 64.628C108.27 64.629 108.211 64.6454 108.16 64.6756C108.109 64.7058 108.066 64.7488 108.036 64.8004C108.006 64.8519 107.991 64.9104 107.99 64.97V73.79C107.989 73.833 107.977 73.8751 107.954 73.9119C107.932 73.9487 107.9 73.9791 107.863 74C107.826 74.0218 107.785 74.0333 107.743 74.0333C107.7 74.0333 107.659 74.0218 107.623 74L106.183 73.1675C106.078 73.1069 105.959 73.075 105.838 73.075C105.716 73.075 105.597 73.1069 105.493 73.1675L99.74 76.4825C99.6353 76.5438 99.5484 76.6314 99.4879 76.7366C99.4274 76.8419 99.3954 76.9611 99.395 77.0825V83.75C99.3948 83.8725 99.4265 83.9929 99.487 84.0994C99.5475 84.206 99.6347 84.2949 99.74 84.3575L105.5 87.6425C105.604 87.7053 105.723 87.7385 105.845 87.7385C105.967 87.7385 106.086 87.7053 106.19 87.6425L111.943 84.3275C112.048 84.2649 112.135 84.176 112.196 84.0694C112.256 83.9629 112.288 83.8425 112.288 83.72V67.22C112.287 67.0968 112.254 66.9759 112.19 66.8703C112.127 66.7647 112.036 66.6782 111.928 66.62L108.5 64.67ZM107.968 81.545C107.968 81.575 107.961 81.6046 107.946 81.6309C107.932 81.6572 107.911 81.6793 107.885 81.695L105.913 82.8275C105.887 82.8452 105.857 82.8547 105.826 82.8547C105.795 82.8547 105.765 82.8452 105.74 82.8275L103.775 81.695C103.749 81.6793 103.728 81.6572 103.714 81.6309C103.699 81.6046 103.692 81.575 103.693 81.545V79.25C103.692 79.2199 103.699 79.1903 103.714 79.164C103.728 79.1377 103.749 79.1156 103.775 79.1L105.755 77.96C105.781 77.9455 105.811 77.9379 105.841 77.9379C105.871 77.9379 105.901 77.9455 105.928 77.96L107.9 79.1C107.926 79.1156 107.947 79.1377 107.961 79.164C107.976 79.1903 107.983 79.2199 107.983 79.25L107.968 81.545ZM127.655 79.205C127.76 79.1436 127.847 79.056 127.907 78.9508C127.968 78.8455 128 78.7263 128 78.605V77C128 76.8786 127.968 76.7594 127.907 76.6541C127.847 76.5489 127.76 76.4613 127.655 76.4L121.948 73.085C121.842 73.0222 121.722 72.9891 121.599 72.9891C121.476 72.9891 121.356 73.0222 121.25 73.085L115.505 76.4C115.399 76.4601 115.312 76.5475 115.251 76.653C115.19 76.7585 115.159 76.8783 115.16 77V83.63C115.16 83.7525 115.192 83.8729 115.252 83.9794C115.312 84.086 115.4 84.1749 115.505 84.2375L121.25 87.5C121.353 87.5592 121.469 87.5904 121.588 87.5904C121.706 87.5904 121.822 87.5592 121.925 87.5L125.383 85.58C125.435 85.5488 125.479 85.5051 125.511 85.4527C125.542 85.4004 125.56 85.341 125.563 85.28C125.563 85.2173 125.546 85.1558 125.514 85.1018C125.483 85.0477 125.437 85.0031 125.383 84.9725L119.57 81.65C119.518 81.619 119.475 81.5751 119.444 81.5226C119.414 81.47 119.398 81.4106 119.398 81.35V79.25C119.397 79.1892 119.413 79.1294 119.443 79.0768C119.474 79.0241 119.517 78.9803 119.57 78.95L121.37 77.9075C121.423 77.8779 121.482 77.8624 121.543 77.8624C121.603 77.8624 121.662 77.8779 121.715 77.9075L123.5 78.9725C123.555 79.0012 123.6 79.0444 123.632 79.0973C123.664 79.1502 123.68 79.2108 123.68 79.2725V80.9075C123.68 80.9681 123.696 81.0278 123.726 81.0804C123.756 81.133 123.8 81.1767 123.852 81.2071C123.904 81.2376 123.964 81.2536 124.025 81.2537C124.085 81.2537 124.145 81.2378 124.198 81.2075L127.655 79.205Z" fill="#333333"/>
<path fill-rule="evenodd" clip-rule="evenodd" d="M121.513 78.8975C121.532 78.8829 121.556 78.875 121.58 78.875C121.605 78.875 121.628 78.8829 121.648 78.8975L122.75 79.5275C122.77 79.5415 122.785 79.5594 122.797 79.5801C122.809 79.6008 122.816 79.6238 122.818 79.6475V80.9225C122.816 80.9453 122.809 80.9674 122.798 80.987C122.786 81.0066 122.77 81.023 122.75 81.035L121.648 81.6725C121.627 81.6837 121.604 81.6895 121.58 81.6895C121.557 81.6895 121.534 81.6837 121.513 81.6725L120.41 81.035C120.391 81.023 120.375 81.0066 120.363 80.987C120.351 80.9674 120.344 80.9453 120.343 80.9225V79.6475C120.345 79.6238 120.352 79.6008 120.363 79.5801C120.375 79.5594 120.391 79.5415 120.41 79.5275L121.513 78.8975Z" fill="#679E63"/>
<path fill-rule="evenodd" clip-rule="evenodd" d="M90.5 73.1151C90.3947 73.056 90.2759 73.0249 90.155 73.0249C90.0342 73.0249 89.9154 73.056 89.81 73.1151L84.095 76.4151C83.9915 76.474 83.9051 76.559 83.8446 76.6616C83.7841 76.7643 83.7515 76.8809 83.75 77.0001V83.6001C83.7486 83.7208 83.7799 83.8397 83.8407 83.944C83.9014 84.0484 83.9893 84.1343 84.095 84.1926L89.8025 87.5001C89.9075 87.5644 90.0282 87.5984 90.1513 87.5984C90.2744 87.5984 90.3951 87.5644 90.5 87.5001L96.2075 84.2001C96.3133 84.1418 96.4012 84.0559 96.4619 83.9515C96.5227 83.8472 96.554 83.7283 96.5525 83.6076V77.0001C96.5538 76.8784 96.5224 76.7586 96.4617 76.6531C96.4011 76.5476 96.3133 76.4603 96.2075 76.4001L90.5 73.1151Z" fill="url(#paint0_linear_105_2067)"/>
<path d="M96.2151 76.4149L90.5001 73.1149C90.4428 73.0858 90.3824 73.0632 90.3201 73.0474L83.8701 84.0499C83.9224 84.1164 83.9891 84.1702 84.0651 84.2074L89.8026 87.4999C89.8819 87.5474 89.9701 87.5779 90.0618 87.5895C90.1534 87.6011 90.2465 87.5936 90.3351 87.5674L96.3351 76.5274C96.2994 76.4856 96.2591 76.4478 96.2151 76.4149Z" fill="url(#paint1_linear_105_2067)"/>
<path d="M89.6082 71.8999L89.5332 71.9524H89.6382L89.6082 71.8999Z" fill="url(#paint2_linear_105_2067)"/>
<path d="M96.2157 84.2075C96.2994 84.1628 96.3727 84.1009 96.4308 84.026C96.489 83.951 96.5307 83.8646 96.5532 83.7725L90.2757 73.04C90.1095 73.0041 89.9359 73.0308 89.7882 73.115L84.0957 76.3925L90.2457 87.5975C90.3357 87.5799 90.422 87.5469 90.5007 87.5L96.2157 84.2075Z" fill="url(#paint3_linear_105_2067)"/>
<path d="M96.7475 84.1025L96.71 84.0425V84.125L96.7475 84.1025Z" fill="url(#paint4_linear_105_2067)"/>
<path d="M96.2151 84.2075L90.5001 87.5C90.4209 87.5443 90.3346 87.5748 90.2451 87.59L90.3576 87.8L96.7101 84.1175V84.035L96.5526 83.75C96.533 83.8462 96.4927 83.937 96.4344 84.016C96.3761 84.095 96.3013 84.1604 96.2151 84.2075Z" fill="url(#paint5_linear_105_2067)"/>
<path d="M96.2151 84.2075L90.5001 87.5C90.4209 87.5443 90.3346 87.5748 90.2451 87.59L90.3576 87.8L96.7101 84.1175V84.035L96.5526 83.75C96.533 83.8462 96.4927 83.937 96.4344 84.016C96.3761 84.095 96.3013 84.1604 96.2151 84.2075Z" fill="url(#paint6_linear_105_2067)"/>
</g>
<defs>
<filter id="filter0_d_105_2067" x="5.12988" y="2.18799" width="185.74" height="199.624" filterUnits="userSpaceOnUse" color-interpolation-filters="sRGB">
<feFlood flood-opacity="0" result="BackgroundImageFix"/>
<feColorMatrix in="SourceAlpha" type="matrix" values="0 0 0 0 0 0 0 0 0 0 0 0 0 0 0 0 0 0 127 0" result="hardAlpha"/>
<feOffset dy="4"/>
<feGaussianBlur stdDeviation="4"/>
<feColorMatrix type="matrix" values="0 0 0 0 0.0627451 0 0 0 0 0.0941176 0 0 0 0 0.156863 0 0 0 0.04 0"/>
<feBlend mode="normal" in2="BackgroundImageFix" result="effect1_dropShadow_105_2067"/>
<feBlend mode="normal" in="SourceGraphic" in2="effect1_dropShadow_105_2067" result="shape"/>
</filter>
<linearGradient id="paint0_linear_105_2067" x1="92.465" y1="75.5751" x2="87.3051" y2="86.1051" gradientUnits="userSpaceOnUse">
<stop stop-color="#3F873F"/>
<stop offset="0.33" stop-color="#3F8B3D"/>
<stop offset="0.64" stop-color="#3E9637"/>
<stop offset="0.93" stop-color="#3DA92E"/>
<stop offset="1" stop-color="#3DAE2B"/>
</linearGradient>
<linearGradient id="paint1_linear_105_2067" x1="89.2776" y1="81.0874" x2="103.76" y2="70.3774" gradientUnits="userSpaceOnUse">
<stop offset="0.14" stop-color="#3F873F"/>
<stop offset="0.4" stop-color="#529F44"/>
<stop offset="0.71" stop-color="#63B649"/>
<stop offset="0.91" stop-color="#6ABF4B"/>
</linearGradient>
<linearGradient id="paint2_linear_105_2067" x1="83.5406" y1="71.9224" x2="96.7483" y2="71.9224" gradientUnits="userSpaceOnUse">
<stop offset="0.09" stop-color="#6ABF4B"/>
<stop offset="0.29" stop-color="#63B649"/>
<stop offset="0.6" stop-color="#529F44"/>
<stop offset="0.86" stop-color="#3F873F"/>
</linearGradient>
<linearGradient id="paint3_linear_105_2067" x1="83.5407" y1="80.3075" x2="96.7482" y2="80.3075" gradientUnits="userSpaceOnUse">
<stop offset="0.09" stop-color="#6ABF4B"/>
<stop offset="0.29" stop-color="#63B649"/>
<stop offset="0.6" stop-color="#529F44"/>
<stop offset="0.86" stop-color="#3F873F"/>
</linearGradient>
<linearGradient id="paint4_linear_105_2067" x1="83.5392" y1="84.08" x2="96.7475" y2="84.08" gradientUnits="userSpaceOnUse">
<stop offset="0.09" stop-color="#6ABF4B"/>
<stop offset="0.29" stop-color="#63B649"/>
<stop offset="0.6" stop-color="#529F44"/>
<stop offset="0.86" stop-color="#3F873F"/>
</linearGradient>
<linearGradient id="paint5_linear_105_2067" x1="83.5401" y1="85.79" x2="96.7476" y2="85.79" gradientUnits="userSpaceOnUse">
<stop offset="0.09" stop-color="#6ABF4B"/>
<stop offset="0.29" stop-color="#63B649"/>
<stop offset="0.6" stop-color="#529F44"/>
<stop offset="0.86" stop-color="#3F873F"/>
</linearGradient>
<linearGradient id="paint6_linear_105_2067" x1="98.6751" y1="75.26" x2="90.5301" y2="91.88" gradientUnits="userSpaceOnUse">
<stop stop-color="#3F873F"/>
<stop offset="0.33" stop-color="#3F8B3D"/>
<stop offset="0.64" stop-color="#3E9637"/>
<stop offset="0.93" stop-color="#3DA92E"/>
<stop offset="1" stop-color="#3DAE2B"/>
</linearGradient>
<clipPath id="clip0_105_2067">
<rect width="60" height="60" fill="white" transform="translate(68 53)"/>
</clipPath>
</defs>
</svg>
