<svg width="196" height="202" viewBox="0 0 196 202" fill="none" xmlns="http://www.w3.org/2000/svg">
<g filter="url(#filter0_d_105_2144)">
<path d="M78 11.547C90.376 4.40169 105.624 4.40169 118 11.547L162.87 37.453C175.247 44.5983 182.87 57.8034 182.87 72.094V123.906C182.87 138.197 175.247 151.402 162.87 158.547L118 184.453C105.624 191.598 90.376 191.598 78 184.453L33.1295 158.547C20.7535 151.402 13.1295 138.197 13.1295 123.906V72.094C13.1295 57.8034 20.7535 44.5983 33.1295 37.453L78 11.547Z" fill="white"/>
</g>
<path d="M82.6451 132.4V145H84.1751V132.4H82.6451ZM83.4911 133.84H86.0651C86.8811 133.84 87.5411 134.038 88.0451 134.434C88.5611 134.818 88.8191 135.4 88.8191 136.18C88.8191 136.948 88.5611 137.53 88.0451 137.926C87.5411 138.322 86.8811 138.52 86.0651 138.52H83.4911V139.96H86.0651C86.8811 139.96 87.6071 139.81 88.2431 139.51C88.8911 139.198 89.4011 138.76 89.7731 138.196C90.1571 137.62 90.3491 136.948 90.3491 136.18C90.3491 135.4 90.1571 134.728 89.7731 134.164C89.4011 133.6 88.8911 133.168 88.2431 132.868C87.6071 132.556 86.8811 132.4 86.0651 132.4H83.4911V133.84ZM93.3524 138.88H101.992V137.44H93.3524V138.88ZM100.966 132.4V145H102.496V132.4H100.966ZM92.5064 132.4V145H94.0364V132.4H92.5064ZM105.374 132.4V145H106.904V132.4H105.374ZM106.22 133.84H108.794C109.61 133.84 110.27 134.038 110.774 134.434C111.29 134.818 111.548 135.4 111.548 136.18C111.548 136.948 111.29 137.53 110.774 137.926C110.27 138.322 109.61 138.52 108.794 138.52H106.22V139.96H108.794C109.61 139.96 110.336 139.81 110.972 139.51C111.62 139.198 112.13 138.76 112.502 138.196C112.886 137.62 113.078 136.948 113.078 136.18C113.078 135.4 112.886 134.728 112.502 134.164C112.13 133.6 111.62 133.168 110.972 132.868C110.336 132.556 109.61 132.4 108.794 132.4H106.22V133.84Z" fill="#424254"/>
<g clip-path="url(#clip0_105_2144)">
<path d="M68 53H128V113H68V53Z" fill="#8892BF"/>
<path d="M78.2976 75.0575H85.4151C87.5101 75.0575 89.0251 75.655 89.9601 76.85C90.8951 78.045 91.2051 79.6575 90.8901 81.6875C90.7596 82.6423 90.4813 83.5709 90.0651 84.44C89.653 85.3484 89.0757 86.1724 88.3626 86.87C87.6015 87.7121 86.6151 88.3186 85.5201 88.6175C84.4938 88.866 83.4411 88.9894 82.3851 88.985H79.1976L78.1926 94.01H74.4951L78.2976 75.0575ZM81.4026 78.0575L79.8126 86C79.9175 86.0074 80.0227 86.0074 80.1276 86H80.5026C81.9376 86.053 83.372 85.8835 84.7551 85.4975C85.8876 85.13 86.6451 83.84 87.0051 81.6425C87.3276 79.79 87.0051 78.725 86.0526 78.44C84.9007 78.1365 83.7107 78.0026 82.5201 78.0425C82.3153 78.0532 82.11 78.0532 81.9051 78.0425H81.3501M95.0976 70.01H98.7501L97.7151 75.0575H101C102.432 74.9795 103.851 75.369 105.043 76.1675C105.943 76.8725 106.213 78.2075 105.838 80.1875L104.075 89H100.325L102.028 80.5925C102.129 80.2852 102.167 79.9604 102.139 79.638C102.11 79.3156 102.016 79.0024 101.863 78.7175C101.617 78.4963 101.326 78.3318 101.01 78.2359C100.693 78.14 100.36 78.1149 100.033 78.1625H97.0851L94.9326 89H91.2501L95.0751 70.025M109.79 75.0575H116.908C119.003 75.0575 120.518 75.655 121.453 76.85C122.388 78.045 122.698 79.6575 122.383 81.6875C122.252 82.6423 121.974 83.5709 121.558 84.44C121.145 85.3484 120.568 86.1724 119.855 86.87C119.094 87.7121 118.108 88.3186 117.013 88.6175C115.986 88.866 114.934 88.9894 113.878 88.985H110.69L109.685 94.01H105.988L109.79 75.0575ZM112.895 78.0575L111.305 86C111.41 86.0074 111.515 86.0074 111.62 86H111.995C113.43 86.053 114.865 85.8835 116.248 85.4975C117.38 85.13 118.138 83.84 118.498 81.6425C118.82 79.79 118.498 78.725 117.545 78.44C116.393 78.1356 115.203 78.0017 114.013 78.0425C113.808 78.0532 113.602 78.0532 113.398 78.0425H112.843" fill="white"/>
</g>
<defs>
<filter id="filter0_d_105_2144" x="5.12988" y="2.18799" width="185.74" height="199.624" filterUnits="userSpaceOnUse" color-interpolation-filters="sRGB">
<feFlood flood-opacity="0" result="BackgroundImageFix"/>
<feColorMatrix in="SourceAlpha" type="matrix" values="0 0 0 0 0 0 0 0 0 0 0 0 0 0 0 0 0 0 127 0" result="hardAlpha"/>
<feOffset dy="4"/>
<feGaussianBlur stdDeviation="4"/>
<feColorMatrix type="matrix" values="0 0 0 0 0.0627451 0 0 0 0 0.0941176 0 0 0 0 0.156863 0 0 0 0.04 0"/>
<feBlend mode="normal" in2="BackgroundImageFix" result="effect1_dropShadow_105_2144"/>
<feBlend mode="normal" in="SourceGraphic" in2="effect1_dropShadow_105_2144" result="shape"/>
</filter>
<clipPath id="clip0_105_2144">
<rect width="60" height="60" fill="white" transform="translate(68 53)"/>
</clipPath>
</defs>
</svg>
