<svg width="210" height="224" viewBox="0 0 210 224" fill="none" xmlns="http://www.w3.org/2000/svg">
<g filter="url(#filter0_d_105_2138)">
<path d="M85 17.547C97.376 10.4017 112.624 10.4017 125 17.547L169.87 43.453C182.247 50.5983 189.87 63.8034 189.87 78.094V129.906C189.87 144.197 182.247 157.402 169.87 164.547L125 190.453C112.624 197.598 97.376 197.598 85 190.453L40.1295 164.547C27.7535 157.402 20.1295 144.197 20.1295 129.906V78.094C20.1295 63.8034 27.7535 50.5983 40.1295 43.453L85 17.547Z" fill="white"/>
</g>
<path d="M80.5132 138.4V151H82.0432V138.4H80.5132ZM81.3592 139.84H83.9332C84.7492 139.84 85.4092 140.038 85.9132 140.434C86.4292 140.818 86.6872 141.4 86.6872 142.18C86.6872 142.948 86.4292 143.53 85.9132 143.926C85.4092 144.322 84.7492 144.52 83.9332 144.52H81.3592V145.96H83.9332C84.7492 145.96 85.4752 145.81 86.1112 145.51C86.7592 145.198 87.2692 144.76 87.6412 144.196C88.0252 143.62 88.2172 142.948 88.2172 142.18C88.2172 141.4 88.0252 140.728 87.6412 140.164C87.2692 139.6 86.7592 139.168 86.1112 138.868C85.4752 138.556 84.7492 138.4 83.9332 138.4H81.3592V139.84ZM96.8546 142.72H95.2346L92.6786 149.128L93.2726 149.2L90.6446 142.72H88.9346L92.1026 149.83L89.8346 154.96H91.4546L96.8546 142.72ZM96.9523 142.72V144.07H101.092V142.72H96.9523ZM98.3023 139.84V151H99.7423V139.84H98.3023ZM103.977 136.96H102.537V151H103.977V136.96ZM107.847 145.96V151H109.287V145.78C109.287 145.06 109.167 144.46 108.927 143.98C108.699 143.5 108.369 143.14 107.937 142.9C107.517 142.66 107.019 142.54 106.443 142.54C105.867 142.54 105.357 142.69 104.913 142.99C104.481 143.29 104.139 143.698 103.887 144.214C103.635 144.718 103.509 145.3 103.509 145.96H103.977C103.977 145.564 104.061 145.21 104.229 144.898C104.409 144.586 104.655 144.34 104.967 144.16C105.291 143.98 105.663 143.89 106.083 143.89C106.671 143.89 107.109 144.064 107.397 144.412C107.697 144.76 107.847 145.276 107.847 145.96ZM111.274 146.86C111.274 147.688 111.46 148.432 111.832 149.092C112.216 149.74 112.732 150.25 113.38 150.622C114.028 150.994 114.754 151.18 115.558 151.18C116.374 151.18 117.1 150.994 117.736 150.622C118.384 150.25 118.894 149.74 119.266 149.092C119.65 148.432 119.842 147.688 119.842 146.86C119.842 146.02 119.65 145.276 119.266 144.628C118.894 143.98 118.384 143.47 117.736 143.098C117.1 142.726 116.374 142.54 115.558 142.54C114.754 142.54 114.028 142.726 113.38 143.098C112.732 143.47 112.216 143.98 111.832 144.628C111.46 145.276 111.274 146.02 111.274 146.86ZM112.732 146.86C112.732 146.284 112.852 145.774 113.092 145.33C113.344 144.874 113.68 144.52 114.1 144.268C114.532 144.016 115.018 143.89 115.558 143.89C116.098 143.89 116.578 144.016 116.998 144.268C117.43 144.52 117.766 144.874 118.006 145.33C118.258 145.774 118.384 146.284 118.384 146.86C118.384 147.436 118.258 147.946 118.006 148.39C117.766 148.834 117.43 149.188 116.998 149.452C116.578 149.704 116.098 149.83 115.558 149.83C115.018 149.83 114.532 149.704 114.1 149.452C113.68 149.188 113.344 148.834 113.092 148.39C112.852 147.946 112.732 147.436 112.732 146.86ZM127.13 145.96V151H128.57V145.78C128.57 144.784 128.312 143.998 127.796 143.422C127.292 142.834 126.602 142.54 125.726 142.54C125.186 142.54 124.706 142.66 124.286 142.9C123.878 143.14 123.536 143.512 123.26 144.016V142.72H121.82V151H123.26V145.96C123.26 145.552 123.344 145.192 123.512 144.88C123.692 144.568 123.938 144.328 124.25 144.16C124.574 143.98 124.946 143.89 125.366 143.89C125.942 143.89 126.38 144.064 126.68 144.412C126.98 144.76 127.13 145.276 127.13 145.96Z" fill="#4583E6"/>
<g clip-path="url(#clip0_105_2138)">
<path d="M104.648 58.9999C102.355 59.0027 100.067 59.1984 97.8077 59.5849C91.7477 60.6574 90.6527 62.8924 90.6527 67.0249V72.4999H105V74.2999H85.2752C81.1202 74.2999 77.4752 76.7974 76.3352 81.5524C75.0002 87.0049 75.0002 90.4099 76.3352 96.1024C77.3552 100.34 79.7852 103.362 83.9402 103.362H88.8677V96.8224C88.9197 94.4719 89.8797 92.2327 91.5464 90.5744C93.213 88.9162 95.457 87.9675 97.8077 87.9274H112.103C113.05 87.9195 113.986 87.7251 114.858 87.3551C115.73 86.9852 116.521 86.447 117.184 85.7713C117.848 85.0957 118.372 84.2958 118.727 83.4175C119.081 82.5391 119.259 81.5995 119.25 80.6524V67.0249C119.25 63.1474 115.98 60.2299 112.095 59.5849C109.633 59.1825 107.142 58.9868 104.648 58.9999ZM96.9077 63.3874C97.4492 63.3785 97.9811 63.5308 98.4357 63.8249C98.8904 64.1191 99.2473 64.5418 99.461 65.0394C99.6748 65.5369 99.7357 66.0868 99.6362 66.6191C99.5366 67.1514 99.2809 67.642 98.9017 68.0286C98.5225 68.4152 98.0369 68.6803 97.5067 68.7902C96.9764 68.9001 96.4255 68.8498 95.9239 68.6457C95.4223 68.4416 94.9927 68.093 94.6898 67.6441C94.3869 67.1952 94.2243 66.6664 94.2227 66.1249C94.2167 65.4061 94.496 64.7143 94.9993 64.2011C95.5027 63.6879 96.189 63.3953 96.9077 63.3874Z" fill="url(#paint0_linear_105_2138)"/>
<path d="M121.042 74.3V80.6525C121.022 83.0319 120.078 85.3103 118.41 87.0075C116.743 88.7046 114.481 89.6879 112.102 89.75H97.8073C95.9012 89.7892 94.0859 90.572 92.7491 91.9312C91.4122 93.2905 90.6598 95.1185 90.6523 97.025V110.638C90.6523 114.515 94.0198 116.795 97.8073 117.905C102.461 119.363 107.449 119.363 112.102 117.905C115.71 116.863 119.25 114.763 119.25 110.638V105.178H105V103.363H126.42C130.575 103.363 132.127 100.46 133.575 96.1025C135.075 91.6025 135.007 87.305 133.575 81.5525C132.547 77.4125 130.575 74.3 126.42 74.3H121.042ZM113.002 108.8C113.544 108.791 114.077 108.944 114.532 109.239C114.987 109.533 115.344 109.957 115.557 110.455C115.77 110.954 115.831 111.505 115.73 112.037C115.629 112.57 115.372 113.061 114.991 113.447C114.61 113.833 114.123 114.097 113.592 114.205C113.061 114.313 112.509 114.261 112.008 114.054C111.507 113.848 111.078 113.497 110.777 113.046C110.476 112.595 110.316 112.065 110.317 111.523C110.315 110.808 110.597 110.121 111.1 109.614C111.604 109.106 112.288 108.819 113.002 108.815V108.8Z" fill="url(#paint1_linear_105_2138)"/>
</g>
<defs>
<filter id="filter0_d_105_2138" x="0.129883" y="0.187988" width="209.74" height="223.624" filterUnits="userSpaceOnUse" color-interpolation-filters="sRGB">
<feFlood flood-opacity="0" result="BackgroundImageFix"/>
<feColorMatrix in="SourceAlpha" type="matrix" values="0 0 0 0 0 0 0 0 0 0 0 0 0 0 0 0 0 0 127 0" result="hardAlpha"/>
<feOffset dy="8"/>
<feGaussianBlur stdDeviation="10"/>
<feColorMatrix type="matrix" values="0 0 0 0 0.0627451 0 0 0 0 0.0941176 0 0 0 0 0.156863 0 0 0 0.04 0"/>
<feBlend mode="normal" in2="BackgroundImageFix" result="effect1_dropShadow_105_2138"/>
<feBlend mode="normal" in="SourceGraphic" in2="effect1_dropShadow_105_2138" result="shape"/>
</filter>
<linearGradient id="paint0_linear_105_2138" x1="73.6148" y1="61.0636" x2="106.696" y2="89.0245" gradientUnits="userSpaceOnUse">
<stop stop-color="#5A9FD4"/>
<stop offset="1" stop-color="#306998"/>
</linearGradient>
<linearGradient id="paint1_linear_105_2138" x1="118.806" y1="106.879" x2="106.892" y2="90.3197" gradientUnits="userSpaceOnUse">
<stop stop-color="#FFD43B"/>
<stop offset="1" stop-color="#FFE873"/>
</linearGradient>
<clipPath id="clip0_105_2138">
<rect width="60" height="60" fill="white" transform="translate(75 59)"/>
</clipPath>
</defs>
</svg>
