<svg width="196" height="202" viewBox="0 0 196 202" fill="none" xmlns="http://www.w3.org/2000/svg">
<g filter="url(#filter0_d_105_2085)">
<path d="M78 11.547C90.376 4.40169 105.624 4.40169 118 11.547L162.87 37.453C175.247 44.5983 182.87 57.8034 182.87 72.094V123.906C182.87 138.197 175.247 151.402 162.87 158.547L118 184.453C105.624 191.598 90.376 191.598 78 184.453L33.1295 158.547C20.7535 151.402 13.1295 138.197 13.1295 123.906V72.094C13.1295 57.8034 20.7535 44.5983 33.1295 37.453L78 11.547Z" fill="white"/>
</g>
<path d="M75.325 141.184L74.101 142.012C74.377 142.564 74.731 143.086 75.163 143.578C75.607 144.058 76.117 144.448 76.693 144.748C77.281 145.036 77.917 145.18 78.601 145.18C79.105 145.18 79.585 145.096 80.041 144.928C80.509 144.76 80.923 144.52 81.283 144.208C81.655 143.896 81.943 143.518 82.147 143.074C82.363 142.63 82.471 142.132 82.471 141.58C82.471 141.004 82.369 140.512 82.165 140.104C81.961 139.684 81.697 139.33 81.373 139.042C81.061 138.742 80.719 138.496 80.347 138.304C79.975 138.112 79.621 137.956 79.285 137.836C78.553 137.584 77.971 137.332 77.539 137.08C77.119 136.816 76.819 136.54 76.639 136.252C76.459 135.952 76.369 135.628 76.369 135.28C76.369 134.872 76.525 134.506 76.837 134.182C77.149 133.846 77.647 133.678 78.331 133.678C78.823 133.678 79.237 133.774 79.573 133.966C79.921 134.158 80.215 134.404 80.455 134.704C80.695 135.004 80.893 135.31 81.049 135.622L82.363 134.866C82.159 134.422 81.877 134.002 81.517 133.606C81.157 133.198 80.719 132.868 80.203 132.616C79.699 132.352 79.105 132.22 78.421 132.22C77.713 132.22 77.083 132.364 76.531 132.652C75.979 132.928 75.547 133.312 75.235 133.804C74.923 134.296 74.767 134.854 74.767 135.478C74.767 136.054 74.875 136.54 75.091 136.936C75.319 137.332 75.607 137.668 75.955 137.944C76.303 138.208 76.669 138.43 77.053 138.61C77.437 138.778 77.785 138.916 78.097 139.024C78.577 139.192 79.027 139.384 79.447 139.6C79.879 139.804 80.227 140.074 80.491 140.41C80.755 140.746 80.887 141.196 80.887 141.76C80.887 142.336 80.683 142.81 80.275 143.182C79.867 143.554 79.327 143.74 78.655 143.74C78.151 143.74 77.701 143.632 77.305 143.416C76.909 143.2 76.549 142.9 76.225 142.516C75.913 142.132 75.613 141.688 75.325 141.184ZM84.5383 130.96V145H85.9783V130.96H84.5383ZM89.0383 136.72L85.4383 140.14L89.3983 145H91.1983L87.2383 140.14L90.8383 136.72H89.0383ZM95.4964 145.18C96.3844 145.18 97.1524 145.006 97.8004 144.658C98.4604 144.298 99.0064 143.77 99.4384 143.074L98.2684 142.336C97.9684 142.84 97.6024 143.218 97.1704 143.47C96.7384 143.71 96.2404 143.83 95.6764 143.83C95.1124 143.83 94.6324 143.71 94.2364 143.47C93.8404 143.23 93.5404 142.882 93.3364 142.426C93.1324 141.97 93.0304 141.418 93.0304 140.77C93.0424 140.134 93.1504 139.6 93.3544 139.168C93.5704 138.724 93.8704 138.388 94.2544 138.16C94.6504 137.92 95.1244 137.8 95.6764 137.8C96.1444 137.8 96.5524 137.902 96.9004 138.106C97.2484 138.31 97.5184 138.592 97.7104 138.952C97.9144 139.312 98.0164 139.738 98.0164 140.23C98.0164 140.314 97.9984 140.422 97.9624 140.554C97.9264 140.674 97.8904 140.764 97.8544 140.824L98.4304 139.996H92.4904V141.22H99.5644C99.5644 141.196 99.5644 141.142 99.5644 141.058C99.5764 140.962 99.5824 140.872 99.5824 140.788C99.5824 139.912 99.4264 139.156 99.1144 138.52C98.8024 137.884 98.3524 137.398 97.7644 137.062C97.1884 136.714 96.4924 136.54 95.6764 136.54C94.8604 136.54 94.1404 136.72 93.5164 137.08C92.9044 137.44 92.4244 137.944 92.0764 138.592C91.7404 139.24 91.5724 139.996 91.5724 140.86C91.5724 141.712 91.7344 142.462 92.0584 143.11C92.3944 143.758 92.8564 144.268 93.4444 144.64C94.0444 145 94.7284 145.18 95.4964 145.18ZM100.296 136.72V138.07H104.436V136.72H100.296ZM101.646 133.84V145H103.086V133.84H101.646ZM106.528 140.86C106.528 140.284 106.648 139.774 106.888 139.33C107.14 138.874 107.476 138.52 107.896 138.268C108.328 138.016 108.814 137.89 109.354 137.89C109.798 137.89 110.212 137.962 110.596 138.106C110.992 138.238 111.334 138.418 111.622 138.646C111.91 138.874 112.114 139.126 112.234 139.402V137.602C111.946 137.266 111.532 137.008 110.992 136.828C110.464 136.636 109.918 136.54 109.354 136.54C108.55 136.54 107.824 136.726 107.176 137.098C106.528 137.47 106.012 137.98 105.628 138.628C105.256 139.276 105.07 140.02 105.07 140.86C105.07 141.688 105.256 142.432 105.628 143.092C106.012 143.74 106.528 144.25 107.176 144.622C107.824 144.994 108.55 145.18 109.354 145.18C109.918 145.18 110.464 145.09 110.992 144.91C111.532 144.718 111.946 144.454 112.234 144.118V142.318C112.114 142.582 111.91 142.834 111.622 143.074C111.334 143.302 110.992 143.488 110.596 143.632C110.212 143.764 109.798 143.83 109.354 143.83C108.814 143.83 108.328 143.704 107.896 143.452C107.476 143.188 107.14 142.834 106.888 142.39C106.648 141.946 106.528 141.436 106.528 140.86ZM115.916 130.96H114.476V145H115.916V130.96ZM119.786 139.96V145H121.226V139.78C121.226 139.06 121.106 138.46 120.866 137.98C120.638 137.5 120.308 137.14 119.876 136.9C119.456 136.66 118.958 136.54 118.382 136.54C117.806 136.54 117.296 136.69 116.852 136.99C116.42 137.29 116.078 137.698 115.826 138.214C115.574 138.718 115.448 139.3 115.448 139.96H115.916C115.916 139.564 116 139.21 116.168 138.898C116.348 138.586 116.594 138.34 116.906 138.16C117.23 137.98 117.602 137.89 118.022 137.89C118.61 137.89 119.048 138.064 119.336 138.412C119.636 138.76 119.786 139.276 119.786 139.96Z" fill="#424254"/>
<g clip-path="url(#clip0_105_2085)">
<path d="M79.4 54.9754L98 53L116.6 54.9754L131 74.3951L98 113L65 74.3951L79.4 54.9754Z" fill="#FDB300"/>
<path d="M78.3667 74L98 113L65 74H78.3667Z" fill="#EA6C00"/>
<path d="M117.633 74L98 113L131 74H117.633Z" fill="#EA6C00"/>
<path d="M78.5 74H117.5L98 113L78.5 74Z" fill="#FDAD00"/>
<path d="M98 53L79.5263 54.9389L78.5 74L98 53Z" fill="#FDD231"/>
<path d="M98 53L116.474 54.9389L117.5 74L98 53Z" fill="#FDD231"/>
<path d="M131 74L116 54.5L117.077 74H131Z" fill="#FDAD00"/>
<path d="M65 74L80 54.5L78.9237 74H65Z" fill="#FDAD00"/>
<path d="M98 53L78.5 74H117.5L98 53Z" fill="#FEEEB7"/>
</g>
<defs>
<filter id="filter0_d_105_2085" x="5.12988" y="2.18799" width="185.74" height="199.624" filterUnits="userSpaceOnUse" color-interpolation-filters="sRGB">
<feFlood flood-opacity="0" result="BackgroundImageFix"/>
<feColorMatrix in="SourceAlpha" type="matrix" values="0 0 0 0 0 0 0 0 0 0 0 0 0 0 0 0 0 0 127 0" result="hardAlpha"/>
<feOffset dy="4"/>
<feGaussianBlur stdDeviation="4"/>
<feColorMatrix type="matrix" values="0 0 0 0 0.0627451 0 0 0 0 0.0941176 0 0 0 0 0.156863 0 0 0 0.04 0"/>
<feBlend mode="normal" in2="BackgroundImageFix" result="effect1_dropShadow_105_2085"/>
<feBlend mode="normal" in="SourceGraphic" in2="effect1_dropShadow_105_2085" result="shape"/>
</filter>
<clipPath id="clip0_105_2085">
<rect width="66" height="60" fill="white" transform="translate(65 53)"/>
</clipPath>
</defs>
</svg>
