<svg width="196" height="202" viewBox="0 0 196 202" fill="none" xmlns="http://www.w3.org/2000/svg">
<g filter="url(#filter0_d_105_2111)">
<path d="M78 11.547C90.376 4.40169 105.624 4.40169 118 11.547L162.87 37.453C175.247 44.5983 182.87 57.8034 182.87 72.094V123.906C182.87 138.197 175.247 151.402 162.87 158.547L118 184.453C105.624 191.598 90.376 191.598 78 184.453L33.1295 158.547C20.7535 151.402 13.1295 138.197 13.1295 123.906V72.094C13.1295 57.8034 20.7535 44.5983 33.1295 37.453L78 11.547Z" fill="white"/>
</g>
<path d="M61.0864 141.22H67.7464L67.2064 139.78H61.6264L61.0864 141.22ZM64.3804 135.244L66.5404 140.32L66.6844 140.68L68.5204 145H70.2304L64.3804 131.77L58.5304 145H60.2404L62.1124 140.572L62.2564 140.248L64.3804 135.244ZM77.8832 130.96V145H79.3232V130.96H77.8832ZM70.9532 140.86C70.9532 141.748 71.1392 142.516 71.5112 143.164C71.8832 143.812 72.3812 144.31 73.0052 144.658C73.6292 145.006 74.3132 145.18 75.0572 145.18C75.7532 145.18 76.3592 145.006 76.8752 144.658C77.3912 144.31 77.7932 143.812 78.0812 143.164C78.3812 142.516 78.5312 141.748 78.5312 140.86C78.5312 139.96 78.3812 139.192 78.0812 138.556C77.7932 137.908 77.3912 137.41 76.8752 137.062C76.3592 136.714 75.7532 136.54 75.0572 136.54C74.3132 136.54 73.6292 136.714 73.0052 137.062C72.3812 137.41 71.8832 137.908 71.5112 138.556C71.1392 139.192 70.9532 139.96 70.9532 140.86ZM72.4112 140.86C72.4112 140.224 72.5372 139.684 72.7892 139.24C73.0532 138.796 73.4012 138.46 73.8332 138.232C74.2652 138.004 74.7332 137.89 75.2372 137.89C75.6572 137.89 76.0712 138.004 76.4792 138.232C76.8872 138.46 77.2232 138.796 77.4872 139.24C77.7512 139.684 77.8832 140.224 77.8832 140.86C77.8832 141.496 77.7512 142.036 77.4872 142.48C77.2232 142.924 76.8872 143.26 76.4792 143.488C76.0712 143.716 75.6572 143.83 75.2372 143.83C74.7332 143.83 74.2652 143.716 73.8332 143.488C73.4012 143.26 73.0532 142.924 72.7892 142.48C72.5372 142.036 72.4112 141.496 72.4112 140.86ZM81.2189 140.86C81.2189 141.688 81.4049 142.432 81.7769 143.092C82.1609 143.74 82.6769 144.25 83.3249 144.622C83.9729 144.994 84.6989 145.18 85.5029 145.18C86.3189 145.18 87.0449 144.994 87.6809 144.622C88.3289 144.25 88.8389 143.74 89.2109 143.092C89.5949 142.432 89.7869 141.688 89.7869 140.86C89.7869 140.02 89.5949 139.276 89.2109 138.628C88.8389 137.98 88.3289 137.47 87.6809 137.098C87.0449 136.726 86.3189 136.54 85.5029 136.54C84.6989 136.54 83.9729 136.726 83.3249 137.098C82.6769 137.47 82.1609 137.98 81.7769 138.628C81.4049 139.276 81.2189 140.02 81.2189 140.86ZM82.6769 140.86C82.6769 140.284 82.7969 139.774 83.0369 139.33C83.2889 138.874 83.6249 138.52 84.0449 138.268C84.4769 138.016 84.9629 137.89 85.5029 137.89C86.0429 137.89 86.5229 138.016 86.9429 138.268C87.3749 138.52 87.7109 138.874 87.9509 139.33C88.2029 139.774 88.3289 140.284 88.3289 140.86C88.3289 141.436 88.2029 141.946 87.9509 142.39C87.7109 142.834 87.3749 143.188 86.9429 143.452C86.5229 143.704 86.0429 143.83 85.5029 143.83C84.9629 143.83 84.4769 143.704 84.0449 143.452C83.6249 143.188 83.2889 142.834 83.0369 142.39C82.7969 141.946 82.6769 141.436 82.6769 140.86ZM93.115 130.96H91.675V145H93.115V130.96ZM100.045 140.86C100.045 139.96 99.859 139.192 99.487 138.556C99.115 137.908 98.617 137.41 97.993 137.062C97.381 136.714 96.697 136.54 95.941 136.54C95.257 136.54 94.651 136.714 94.123 137.062C93.607 137.41 93.199 137.908 92.899 138.556C92.611 139.192 92.467 139.96 92.467 140.86C92.467 141.748 92.611 142.516 92.899 143.164C93.199 143.812 93.607 144.31 94.123 144.658C94.651 145.006 95.257 145.18 95.941 145.18C96.697 145.18 97.381 145.006 97.993 144.658C98.617 144.31 99.115 143.812 99.487 143.164C99.859 142.516 100.045 141.748 100.045 140.86ZM98.587 140.86C98.587 141.496 98.455 142.036 98.191 142.48C97.939 142.924 97.597 143.26 97.165 143.488C96.745 143.716 96.277 143.83 95.761 143.83C95.341 143.83 94.927 143.716 94.519 143.488C94.111 143.26 93.775 142.924 93.511 142.48C93.247 142.036 93.115 141.496 93.115 140.86C93.115 140.224 93.247 139.684 93.511 139.24C93.775 138.796 94.111 138.46 94.519 138.232C94.927 138.004 95.341 137.89 95.761 137.89C96.277 137.89 96.745 138.004 97.165 138.232C97.597 138.46 97.939 138.796 98.191 139.24C98.455 139.684 98.587 140.224 98.587 140.86ZM105.235 145.18C106.123 145.18 106.891 145.006 107.539 144.658C108.199 144.298 108.745 143.77 109.177 143.074L108.007 142.336C107.707 142.84 107.341 143.218 106.909 143.47C106.477 143.71 105.979 143.83 105.415 143.83C104.851 143.83 104.371 143.71 103.975 143.47C103.579 143.23 103.279 142.882 103.075 142.426C102.871 141.97 102.769 141.418 102.769 140.77C102.781 140.134 102.889 139.6 103.093 139.168C103.309 138.724 103.609 138.388 103.993 138.16C104.389 137.92 104.863 137.8 105.415 137.8C105.883 137.8 106.291 137.902 106.639 138.106C106.987 138.31 107.257 138.592 107.449 138.952C107.653 139.312 107.755 139.738 107.755 140.23C107.755 140.314 107.737 140.422 107.701 140.554C107.665 140.674 107.629 140.764 107.593 140.824L108.169 139.996H102.229V141.22H109.303C109.303 141.196 109.303 141.142 109.303 141.058C109.315 140.962 109.321 140.872 109.321 140.788C109.321 139.912 109.165 139.156 108.853 138.52C108.541 137.884 108.091 137.398 107.503 137.062C106.927 136.714 106.231 136.54 105.415 136.54C104.599 136.54 103.879 136.72 103.255 137.08C102.643 137.44 102.163 137.944 101.815 138.592C101.479 139.24 101.311 139.996 101.311 140.86C101.311 141.712 101.473 142.462 101.797 143.11C102.133 143.758 102.595 144.268 103.183 144.64C103.783 145 104.467 145.18 105.235 145.18ZM123.081 132.4L120.399 137.062L117.771 132.4H115.971L119.625 138.394L115.521 145H117.321L120.381 139.726L123.351 145H125.151L121.155 138.394L124.881 132.4H123.081ZM126.765 132.4V145H128.295V132.4H126.765ZM130.545 145C131.769 145 132.855 144.736 133.803 144.208C134.751 143.68 135.495 142.948 136.035 142.012C136.575 141.064 136.845 139.96 136.845 138.7C136.845 137.44 136.575 136.342 136.035 135.406C135.495 134.458 134.751 133.72 133.803 133.192C132.855 132.664 131.769 132.4 130.545 132.4H127.611V133.93H130.545C131.253 133.93 131.901 134.044 132.489 134.272C133.077 134.488 133.581 134.806 134.001 135.226C134.421 135.634 134.745 136.132 134.973 136.72C135.201 137.308 135.315 137.968 135.315 138.7C135.315 139.432 135.201 140.092 134.973 140.68C134.745 141.268 134.421 141.772 134.001 142.192C133.581 142.6 133.077 142.918 132.489 143.146C131.901 143.362 131.253 143.47 130.545 143.47H127.611V145H130.545Z" fill="#424254"/>
<g clip-path="url(#clip0_105_2111)">
<path d="M78.625 53H117.375C123.25 53 128 57.8718 128 63.8974V102.103C128 108.128 123.25 113 117.375 113H78.625C72.75 113 68 108.128 68 102.103V63.8974C68 57.8718 72.75 53 78.625 53Z" fill="#470137"/>
<path d="M98.961 69.8852L91.7401 82.5969L99.4424 96.079C99.4906 96.1817 99.5146 96.2844 99.4906 96.3871C99.4665 96.4899 99.3702 96.4128 99.2258 96.4385H93.7138C93.3287 96.4385 93.0639 96.4128 92.8955 96.156C92.39 95.0774 91.8605 94.0246 91.355 92.946C90.8495 91.8931 90.2959 90.8145 89.7183 89.7103C89.1406 88.606 88.5629 87.5018 87.9852 86.3719H87.9371C87.4316 87.4761 86.878 88.5804 86.3244 89.6846C85.7708 90.7889 85.2172 91.8931 84.6877 92.9717C84.1341 94.0502 83.5805 95.1545 83.0269 96.2074C82.9306 96.4642 82.738 96.4899 82.4733 96.4899H77.1779C77.0817 96.4899 77.0094 96.5412 77.0094 96.4128C76.9854 96.3101 77.0094 96.2074 77.0576 96.1303L84.5433 83.0334L77.2501 69.8595C77.1779 69.7568 77.1539 69.6541 77.202 69.6027C77.2501 69.5257 77.3464 69.5 77.4427 69.5H82.9065C83.0269 69.5 83.1472 69.5257 83.2435 69.5514C83.3398 69.6027 83.412 69.6798 83.4842 69.7825C83.9415 70.8867 84.4711 71.991 85.0247 73.0952C85.6023 74.1995 86.1559 75.278 86.7577 76.3566C87.3354 77.4352 87.8649 78.5137 88.3703 79.618H88.4185C88.924 78.4881 89.4535 77.3838 89.983 76.3052C90.5126 75.2267 91.0662 74.1481 91.6198 73.0695C92.1734 71.991 92.7029 70.8867 93.2324 69.8338C93.2565 69.7311 93.3046 69.6284 93.3769 69.577C93.4731 69.5257 93.5694 69.5 93.6898 69.5257H98.7685C98.8888 69.5 99.0092 69.577 99.0332 69.7054C99.0573 69.7311 99.0092 69.8338 98.961 69.8852Z" fill="#FF61F6"/>
<path d="M111.131 96.4988C109.351 96.5247 107.57 96.1358 105.958 95.3322C104.442 94.5804 103.191 93.336 102.324 91.8064C101.434 90.225 101.001 88.2548 101.001 85.8956C100.977 83.9772 101.434 82.0847 102.324 80.4255C103.239 78.7404 104.562 77.3405 106.15 76.4072C107.835 75.3962 109.856 74.9036 112.238 74.9036C112.359 74.9036 112.527 74.9036 112.744 74.9295C112.96 74.9554 113.201 74.9554 113.49 74.9814V66.7892C113.49 66.6077 113.562 66.504 113.73 66.504H118.615C118.735 66.4781 118.832 66.5818 118.856 66.6855C118.856 66.7114 118.856 66.7374 118.856 66.7374V91.4176C118.856 91.8842 118.88 92.4027 118.904 92.973C118.952 93.5175 118.976 94.0359 119 94.4767C119 94.6581 118.928 94.8137 118.759 94.8915C117.508 95.4618 116.185 95.8766 114.837 96.1358C113.61 96.3692 112.383 96.4988 111.131 96.4988ZM113.49 91.3139V79.907C113.273 79.8552 113.056 79.8033 112.84 79.7774C112.575 79.7515 112.31 79.7256 112.046 79.7256C111.107 79.7256 110.169 79.933 109.327 80.3996C108.509 80.8403 107.811 81.4884 107.281 82.318C106.752 83.1476 106.487 84.2624 106.487 85.6105C106.463 86.5178 106.608 87.4252 106.896 88.2807C107.137 88.9807 107.498 89.6028 107.979 90.1213C108.436 90.588 108.99 90.9509 109.615 91.1583C110.265 91.3916 110.939 91.4953 111.613 91.4953C111.974 91.4953 112.31 91.4694 112.623 91.4435C112.936 91.4694 113.201 91.4176 113.49 91.3139Z" fill="#FF61F6"/>
</g>
<defs>
<filter id="filter0_d_105_2111" x="5.12988" y="2.18799" width="185.74" height="199.624" filterUnits="userSpaceOnUse" color-interpolation-filters="sRGB">
<feFlood flood-opacity="0" result="BackgroundImageFix"/>
<feColorMatrix in="SourceAlpha" type="matrix" values="0 0 0 0 0 0 0 0 0 0 0 0 0 0 0 0 0 0 127 0" result="hardAlpha"/>
<feOffset dy="4"/>
<feGaussianBlur stdDeviation="4"/>
<feColorMatrix type="matrix" values="0 0 0 0 0.0627451 0 0 0 0 0.0941176 0 0 0 0 0.156863 0 0 0 0.04 0"/>
<feBlend mode="normal" in2="BackgroundImageFix" result="effect1_dropShadow_105_2111"/>
<feBlend mode="normal" in="SourceGraphic" in2="effect1_dropShadow_105_2111" result="shape"/>
</filter>
<clipPath id="clip0_105_2111">
<rect width="60" height="60" fill="white" transform="translate(68 53)"/>
</clipPath>
</defs>
</svg>
