<svg width="196" height="202" viewBox="0 0 196 202" fill="none" xmlns="http://www.w3.org/2000/svg">
<g filter="url(#filter0_d_105_2102)">
<path d="M78 11.547C90.376 4.40169 105.624 4.40169 118 11.547L162.87 37.453C175.247 44.5983 182.87 57.8034 182.87 72.094V123.906C182.87 138.197 175.247 151.402 162.87 158.547L118 184.453C105.624 191.598 90.376 191.598 78 184.453L33.1295 158.547C20.7535 151.402 13.1295 138.197 13.1295 123.906V72.094C13.1295 57.8034 20.7535 44.5983 33.1295 37.453L78 11.547Z" fill="white"/>
</g>
<path d="M76.4598 130.84H82.0938V129.4H76.4598V130.84ZM76.4598 135.88H81.9138V134.44H76.4598V135.88ZM75.6138 129.4V142H77.1438V129.4H75.6138ZM84.5238 130.3C84.5238 130.564 84.6198 130.798 84.8118 131.002C85.0158 131.194 85.2498 131.29 85.5138 131.29C85.7898 131.29 86.0238 131.194 86.2158 131.002C86.4078 130.798 86.5038 130.564 86.5038 130.3C86.5038 130.024 86.4078 129.79 86.2158 129.598C86.0238 129.406 85.7898 129.31 85.5138 129.31C85.2498 129.31 85.0158 129.406 84.8118 129.598C84.6198 129.79 84.5238 130.024 84.5238 130.3ZM84.7938 133.72V142H86.2338V133.72H84.7938ZM88.6416 142.54C88.6416 143.248 88.8156 143.872 89.1636 144.412C89.5116 144.964 89.9916 145.39 90.6036 145.69C91.2276 145.99 91.9416 146.14 92.7456 146.14C93.4416 146.14 94.1016 145.978 94.7256 145.654C95.3496 145.33 95.8596 144.844 96.2556 144.196C96.6516 143.56 96.8496 142.768 96.8496 141.82V133.72H95.4096V141.82C95.4096 142.516 95.2716 143.08 94.9956 143.512C94.7316 143.956 94.3956 144.28 93.9876 144.484C93.5796 144.688 93.1656 144.79 92.7456 144.79C92.2056 144.79 91.7376 144.682 91.3416 144.466C90.9456 144.262 90.6396 143.986 90.4236 143.638C90.2076 143.302 90.0996 142.936 90.0996 142.54H88.6416ZM88.4796 137.86C88.4796 138.748 88.6656 139.516 89.0376 140.164C89.4096 140.812 89.9076 141.31 90.5316 141.658C91.1556 142.006 91.8396 142.18 92.5836 142.18C93.2796 142.18 93.8856 142.006 94.4016 141.658C94.9176 141.31 95.3196 140.812 95.6076 140.164C95.9076 139.516 96.0576 138.748 96.0576 137.86C96.0576 136.96 95.9076 136.192 95.6076 135.556C95.3196 134.908 94.9176 134.41 94.4016 134.062C93.8856 133.714 93.2796 133.54 92.5836 133.54C91.8396 133.54 91.1556 133.714 90.5316 134.062C89.9076 134.41 89.4096 134.908 89.0376 135.556C88.6656 136.192 88.4796 136.96 88.4796 137.86ZM89.9376 137.86C89.9376 137.224 90.0636 136.684 90.3156 136.24C90.5796 135.796 90.9276 135.46 91.3596 135.232C91.7916 135.004 92.2596 134.89 92.7636 134.89C93.0756 134.89 93.3876 134.956 93.6996 135.088C94.0116 135.22 94.2936 135.412 94.5456 135.664C94.8096 135.916 95.0196 136.228 95.1756 136.6C95.3316 136.96 95.4096 137.38 95.4096 137.86C95.4096 138.496 95.2776 139.036 95.0136 139.48C94.7496 139.924 94.4136 140.26 94.0056 140.488C93.5976 140.716 93.1836 140.83 92.7636 140.83C92.2596 140.83 91.7916 140.716 91.3596 140.488C90.9276 140.26 90.5796 139.924 90.3156 139.48C90.0636 139.036 89.9376 138.496 89.9376 137.86ZM110.805 136.78C110.805 136.096 110.697 135.514 110.481 135.034C110.277 134.542 109.977 134.17 109.581 133.918C109.185 133.666 108.705 133.54 108.141 133.54C107.589 133.54 107.097 133.672 106.665 133.936C106.233 134.188 105.873 134.572 105.585 135.088C105.393 134.596 105.087 134.218 104.667 133.954C104.259 133.678 103.767 133.54 103.191 133.54C102.675 133.54 102.225 133.654 101.841 133.882C101.469 134.11 101.157 134.458 100.905 134.926V133.72H99.4652V142H100.905V136.96C100.905 136.528 100.983 136.156 101.139 135.844C101.295 135.532 101.517 135.298 101.805 135.142C102.093 134.974 102.435 134.89 102.831 134.89C103.371 134.89 103.767 135.058 104.019 135.394C104.283 135.73 104.415 136.252 104.415 136.96V142H105.855V136.96C105.855 136.528 105.933 136.156 106.089 135.844C106.245 135.532 106.467 135.298 106.755 135.142C107.043 134.974 107.385 134.89 107.781 134.89C108.321 134.89 108.717 135.058 108.969 135.394C109.233 135.73 109.365 136.252 109.365 136.96V142H110.805V136.78ZM114.158 139.444C114.158 139.144 114.23 138.886 114.374 138.67C114.518 138.454 114.734 138.286 115.022 138.166C115.322 138.046 115.706 137.986 116.174 137.986C116.678 137.986 117.152 138.052 117.596 138.184C118.04 138.304 118.472 138.508 118.892 138.796V137.95C118.808 137.842 118.646 137.704 118.406 137.536C118.166 137.356 117.842 137.2 117.434 137.068C117.038 136.924 116.54 136.852 115.94 136.852C114.92 136.852 114.122 137.098 113.546 137.59C112.982 138.07 112.7 138.712 112.7 139.516C112.7 140.08 112.832 140.56 113.096 140.956C113.36 141.352 113.708 141.658 114.14 141.874C114.584 142.078 115.058 142.18 115.562 142.18C116.018 142.18 116.474 142.096 116.93 141.928C117.398 141.76 117.788 141.502 118.1 141.154C118.424 140.806 118.586 140.368 118.586 139.84L118.298 138.76C118.298 139.192 118.19 139.576 117.974 139.912C117.77 140.236 117.488 140.488 117.128 140.668C116.78 140.848 116.384 140.938 115.94 140.938C115.592 140.938 115.28 140.884 115.004 140.776C114.74 140.656 114.53 140.482 114.374 140.254C114.23 140.026 114.158 139.756 114.158 139.444ZM113.942 135.628C114.074 135.532 114.254 135.418 114.482 135.286C114.71 135.154 114.986 135.04 115.31 134.944C115.646 134.848 116.018 134.8 116.426 134.8C116.678 134.8 116.918 134.824 117.146 134.872C117.374 134.92 117.572 134.998 117.74 135.106C117.92 135.214 118.058 135.364 118.154 135.556C118.25 135.736 118.298 135.97 118.298 136.258V142H119.738V136.06C119.738 135.52 119.6 135.064 119.324 134.692C119.06 134.32 118.682 134.038 118.19 133.846C117.71 133.642 117.146 133.54 116.498 133.54C115.73 133.54 115.07 133.654 114.518 133.882C113.978 134.11 113.552 134.338 113.24 134.566L113.942 135.628Z" fill="#424254"/>
<g clip-path="url(#clip0_105_2102)">
<path d="M87.5 110C93.296 110 98 105.632 98 100.25V90.5H87.5C81.704 90.5 77 94.868 77 100.25C77 105.632 81.704 110 87.5 110Z" fill="#0ACF83"/>
<path d="M77 79.25C77 73.868 81.704 69.5 87.5 69.5H98V89H87.5C81.704 89 77 84.632 77 79.25Z" fill="#A259FF"/>
<path d="M77 59.75C77 54.368 81.704 50 87.5 50H98V69.5H87.5C81.704 69.5 77 65.132 77 59.75Z" fill="#F24E1E"/>
<path d="M98 50H108.5C114.296 50 119 54.368 119 59.75C119 65.132 114.296 69.5 108.5 69.5H98V50Z" fill="#FF7262"/>
<path d="M119 79.25C119 84.632 114.296 89 108.5 89C102.704 89 98 84.632 98 79.25C98 73.868 102.704 69.5 108.5 69.5C114.296 69.5 119 73.868 119 79.25Z" fill="#1ABCFE"/>
</g>
<defs>
<filter id="filter0_d_105_2102" x="5.12988" y="2.18799" width="185.74" height="199.624" filterUnits="userSpaceOnUse" color-interpolation-filters="sRGB">
<feFlood flood-opacity="0" result="BackgroundImageFix"/>
<feColorMatrix in="SourceAlpha" type="matrix" values="0 0 0 0 0 0 0 0 0 0 0 0 0 0 0 0 0 0 127 0" result="hardAlpha"/>
<feOffset dy="4"/>
<feGaussianBlur stdDeviation="4"/>
<feColorMatrix type="matrix" values="0 0 0 0 0.0627451 0 0 0 0 0.0941176 0 0 0 0 0.156863 0 0 0 0.04 0"/>
<feBlend mode="normal" in2="BackgroundImageFix" result="effect1_dropShadow_105_2102"/>
<feBlend mode="normal" in="SourceGraphic" in2="effect1_dropShadow_105_2102" result="shape"/>
</filter>
<clipPath id="clip0_105_2102">
<rect width="42" height="60" fill="white" transform="translate(77 50)"/>
</clipPath>
</defs>
</svg>
