<svg width="196" height="202" viewBox="0 0 196 202" fill="none" xmlns="http://www.w3.org/2000/svg">
<g filter="url(#filter0_d_105_2130)">
<path d="M78 11.547C90.376 4.40169 105.624 4.40169 118 11.547L162.87 37.453C175.247 44.5983 182.87 57.8034 182.87 72.094V123.906C182.87 138.197 175.247 151.402 162.87 158.547L118 184.453C105.624 191.598 90.376 191.598 78 184.453L33.1295 158.547C20.7535 151.402 13.1295 138.197 13.1295 123.906V72.094C13.1295 57.8034 20.7535 44.5983 33.1295 37.453L78 11.547Z" fill="white"/>
</g>
<path d="M76.4423 130.84H82.0763V129.4H76.4423V130.84ZM76.4423 135.88H81.8963V134.44H76.4423V135.88ZM75.5963 129.4V142H77.1263V129.4H75.5963ZM84.5063 127.96V142H85.9463V127.96H84.5063ZM90.0947 138.76V133.72H88.6547V138.94C88.6547 139.924 88.9127 140.71 89.4287 141.298C89.9447 141.886 90.6347 142.18 91.4987 142.18C92.0507 142.18 92.5307 142.06 92.9387 141.82C93.3467 141.568 93.6887 141.196 93.9647 140.704V142H95.4047V133.72H93.9647V138.76C93.9647 139.168 93.8747 139.528 93.6947 139.84C93.5267 140.152 93.2807 140.398 92.9567 140.578C92.6447 140.746 92.2787 140.83 91.8587 140.83C91.2827 140.83 90.8447 140.65 90.5447 140.29C90.2447 139.93 90.0947 139.42 90.0947 138.76ZM96.8517 133.72V135.07H100.992V133.72H96.8517ZM98.2017 130.84V142H99.6417V130.84H98.2017ZM101.176 133.72V135.07H105.316V133.72H101.176ZM102.526 130.84V142H103.966V130.84H102.526ZM109.964 142.18C110.852 142.18 111.62 142.006 112.268 141.658C112.928 141.298 113.474 140.77 113.906 140.074L112.736 139.336C112.436 139.84 112.07 140.218 111.638 140.47C111.206 140.71 110.708 140.83 110.144 140.83C109.58 140.83 109.1 140.71 108.704 140.47C108.308 140.23 108.008 139.882 107.804 139.426C107.6 138.97 107.498 138.418 107.498 137.77C107.51 137.134 107.618 136.6 107.822 136.168C108.038 135.724 108.338 135.388 108.722 135.16C109.118 134.92 109.592 134.8 110.144 134.8C110.612 134.8 111.02 134.902 111.368 135.106C111.716 135.31 111.986 135.592 112.178 135.952C112.382 136.312 112.484 136.738 112.484 137.23C112.484 137.314 112.466 137.422 112.43 137.554C112.394 137.674 112.358 137.764 112.322 137.824L112.898 136.996H106.958V138.22H114.032C114.032 138.196 114.032 138.142 114.032 138.058C114.044 137.962 114.05 137.872 114.05 137.788C114.05 136.912 113.894 136.156 113.582 135.52C113.27 134.884 112.82 134.398 112.232 134.062C111.656 133.714 110.96 133.54 110.144 133.54C109.328 133.54 108.608 133.72 107.984 134.08C107.372 134.44 106.892 134.944 106.544 135.592C106.208 136.24 106.04 136.996 106.04 137.86C106.04 138.712 106.202 139.462 106.526 140.11C106.862 140.758 107.324 141.268 107.912 141.64C108.512 142 109.196 142.18 109.964 142.18ZM117.464 133.72H116.024V142H117.464V133.72ZM119.966 135.304L120.758 134.116C120.542 133.888 120.302 133.738 120.038 133.666C119.786 133.582 119.51 133.54 119.21 133.54C118.826 133.54 118.448 133.69 118.076 133.99C117.704 134.29 117.398 134.698 117.158 135.214C116.93 135.718 116.816 136.3 116.816 136.96H117.464C117.464 136.564 117.5 136.21 117.572 135.898C117.656 135.586 117.8 135.34 118.004 135.16C118.208 134.98 118.49 134.89 118.85 134.89C119.09 134.89 119.288 134.926 119.444 134.998C119.6 135.058 119.774 135.16 119.966 135.304Z" fill="#424254"/>
<g clip-path="url(#clip0_105_2130)">
<path fill-rule="evenodd" clip-rule="evenodd" d="M97.8055 69.5H119V50H77V50.1836L97.8055 69.5Z" fill="#67DBFF"/>
<path fill-rule="evenodd" clip-rule="evenodd" d="M98.1959 69.5H77V89H119V88.8164L98.1959 69.5Z" fill="#01A3FF"/>
<path fill-rule="evenodd" clip-rule="evenodd" d="M77 90.5H98V110L77 90.5Z" fill="#0162FF"/>
</g>
<defs>
<filter id="filter0_d_105_2130" x="5.12988" y="2.18799" width="185.74" height="199.624" filterUnits="userSpaceOnUse" color-interpolation-filters="sRGB">
<feFlood flood-opacity="0" result="BackgroundImageFix"/>
<feColorMatrix in="SourceAlpha" type="matrix" values="0 0 0 0 0 0 0 0 0 0 0 0 0 0 0 0 0 0 127 0" result="hardAlpha"/>
<feOffset dy="4"/>
<feGaussianBlur stdDeviation="4"/>
<feColorMatrix type="matrix" values="0 0 0 0 0.0627451 0 0 0 0 0.0941176 0 0 0 0 0.156863 0 0 0 0.04 0"/>
<feBlend mode="normal" in2="BackgroundImageFix" result="effect1_dropShadow_105_2130"/>
<feBlend mode="normal" in="SourceGraphic" in2="effect1_dropShadow_105_2130" result="shape"/>
</filter>
<clipPath id="clip0_105_2130">
<rect width="42" height="60" fill="white" transform="translate(77 50)"/>
</clipPath>
</defs>
</svg>
