<svg width="196" height="202" viewBox="0 0 196 202" fill="none" xmlns="http://www.w3.org/2000/svg">
<g filter="url(#filter0_d_105_2181)">
<path d="M78 11.547C90.376 4.40169 105.624 4.40169 118 11.547L162.87 37.453C175.247 44.5983 182.87 57.8034 182.87 72.094V123.906C182.87 138.197 175.247 151.402 162.87 158.547L118 184.453C105.624 191.598 90.376 191.598 78 184.453L33.1295 158.547C20.7535 151.402 13.1295 138.197 13.1295 123.906V72.094C13.1295 57.8034 20.7535 44.5983 33.1295 37.453L78 11.547Z" fill="white"/>
</g>
<path d="M72.6431 129.4V142H79.1231V140.56H74.1731V129.4H72.6431ZM81.3046 139.444C81.3046 139.144 81.3766 138.886 81.5206 138.67C81.6646 138.454 81.8806 138.286 82.1686 138.166C82.4686 138.046 82.8526 137.986 83.3206 137.986C83.8246 137.986 84.2986 138.052 84.7426 138.184C85.1866 138.304 85.6186 138.508 86.0386 138.796V137.95C85.9546 137.842 85.7926 137.704 85.5526 137.536C85.3126 137.356 84.9886 137.2 84.5806 137.068C84.1846 136.924 83.6866 136.852 83.0866 136.852C82.0666 136.852 81.2686 137.098 80.6926 137.59C80.1286 138.07 79.8466 138.712 79.8466 139.516C79.8466 140.08 79.9786 140.56 80.2426 140.956C80.5066 141.352 80.8546 141.658 81.2866 141.874C81.7306 142.078 82.2046 142.18 82.7086 142.18C83.1646 142.18 83.6206 142.096 84.0766 141.928C84.5446 141.76 84.9346 141.502 85.2466 141.154C85.5706 140.806 85.7326 140.368 85.7326 139.84L85.4446 138.76C85.4446 139.192 85.3366 139.576 85.1206 139.912C84.9166 140.236 84.6346 140.488 84.2746 140.668C83.9266 140.848 83.5306 140.938 83.0866 140.938C82.7386 140.938 82.4266 140.884 82.1506 140.776C81.8866 140.656 81.6766 140.482 81.5206 140.254C81.3766 140.026 81.3046 139.756 81.3046 139.444ZM81.0886 135.628C81.2206 135.532 81.4006 135.418 81.6286 135.286C81.8566 135.154 82.1326 135.04 82.4566 134.944C82.7926 134.848 83.1646 134.8 83.5726 134.8C83.8246 134.8 84.0646 134.824 84.2926 134.872C84.5206 134.92 84.7186 134.998 84.8866 135.106C85.0666 135.214 85.2046 135.364 85.3006 135.556C85.3966 135.736 85.4446 135.97 85.4446 136.258V142H86.8846V136.06C86.8846 135.52 86.7466 135.064 86.4706 134.692C86.2066 134.32 85.8286 134.038 85.3366 133.846C84.8566 133.642 84.2926 133.54 83.6446 133.54C82.8766 133.54 82.2166 133.654 81.6646 133.882C81.1246 134.11 80.6986 134.338 80.3866 134.566L81.0886 135.628ZM90.7627 133.72H89.3227V142H90.7627V133.72ZM93.2647 135.304L94.0567 134.116C93.8407 133.888 93.6007 133.738 93.3367 133.666C93.0847 133.582 92.8087 133.54 92.5087 133.54C92.1247 133.54 91.7467 133.69 91.3747 133.99C91.0027 134.29 90.6967 134.698 90.4567 135.214C90.2287 135.718 90.1147 136.3 90.1147 136.96H90.7627C90.7627 136.564 90.7987 136.21 90.8707 135.898C90.9547 135.586 91.0987 135.34 91.3027 135.16C91.5067 134.98 91.7887 134.89 92.1487 134.89C92.3887 134.89 92.5867 134.926 92.7427 134.998C92.8987 135.058 93.0727 135.16 93.2647 135.304ZM96.1406 139.444C96.1406 139.144 96.2126 138.886 96.3566 138.67C96.5006 138.454 96.7166 138.286 97.0046 138.166C97.3046 138.046 97.6886 137.986 98.1566 137.986C98.6606 137.986 99.1346 138.052 99.5786 138.184C100.023 138.304 100.455 138.508 100.875 138.796V137.95C100.791 137.842 100.629 137.704 100.389 137.536C100.149 137.356 99.8246 137.2 99.4166 137.068C99.0206 136.924 98.5226 136.852 97.9226 136.852C96.9026 136.852 96.1046 137.098 95.5286 137.59C94.9646 138.07 94.6826 138.712 94.6826 139.516C94.6826 140.08 94.8146 140.56 95.0786 140.956C95.3426 141.352 95.6906 141.658 96.1226 141.874C96.5666 142.078 97.0406 142.18 97.5446 142.18C98.0006 142.18 98.4566 142.096 98.9126 141.928C99.3806 141.76 99.7706 141.502 100.083 141.154C100.407 140.806 100.569 140.368 100.569 139.84L100.281 138.76C100.281 139.192 100.173 139.576 99.9566 139.912C99.7526 140.236 99.4706 140.488 99.1106 140.668C98.7626 140.848 98.3666 140.938 97.9226 140.938C97.5746 140.938 97.2626 140.884 96.9866 140.776C96.7226 140.656 96.5126 140.482 96.3566 140.254C96.2126 140.026 96.1406 139.756 96.1406 139.444ZM95.9246 135.628C96.0566 135.532 96.2366 135.418 96.4646 135.286C96.6926 135.154 96.9686 135.04 97.2926 134.944C97.6286 134.848 98.0006 134.8 98.4086 134.8C98.6606 134.8 98.9006 134.824 99.1286 134.872C99.3566 134.92 99.5546 134.998 99.7226 135.106C99.9026 135.214 100.041 135.364 100.137 135.556C100.233 135.736 100.281 135.97 100.281 136.258V142H101.721V136.06C101.721 135.52 101.583 135.064 101.307 134.692C101.043 134.32 100.665 134.038 100.173 133.846C99.6926 133.642 99.1286 133.54 98.4806 133.54C97.7126 133.54 97.0526 133.654 96.5006 133.882C95.9606 134.11 95.5346 134.338 95.2226 134.566L95.9246 135.628ZM102.721 133.72L106.681 142.63L110.641 133.72H109.021L106.681 139.57L104.341 133.72H102.721ZM114.939 142.18C115.827 142.18 116.595 142.006 117.243 141.658C117.903 141.298 118.449 140.77 118.881 140.074L117.711 139.336C117.411 139.84 117.045 140.218 116.613 140.47C116.181 140.71 115.683 140.83 115.119 140.83C114.555 140.83 114.075 140.71 113.679 140.47C113.283 140.23 112.983 139.882 112.779 139.426C112.575 138.97 112.473 138.418 112.473 137.77C112.485 137.134 112.593 136.6 112.797 136.168C113.013 135.724 113.313 135.388 113.697 135.16C114.093 134.92 114.567 134.8 115.119 134.8C115.587 134.8 115.995 134.902 116.343 135.106C116.691 135.31 116.961 135.592 117.153 135.952C117.357 136.312 117.459 136.738 117.459 137.23C117.459 137.314 117.441 137.422 117.405 137.554C117.369 137.674 117.333 137.764 117.297 137.824L117.873 136.996H111.933V138.22H119.007C119.007 138.196 119.007 138.142 119.007 138.058C119.019 137.962 119.025 137.872 119.025 137.788C119.025 136.912 118.869 136.156 118.557 135.52C118.245 134.884 117.795 134.398 117.207 134.062C116.631 133.714 115.935 133.54 115.119 133.54C114.303 133.54 113.583 133.72 112.959 134.08C112.347 134.44 111.867 134.944 111.519 135.592C111.183 136.24 111.015 136.996 111.015 137.86C111.015 138.712 111.177 139.462 111.501 140.11C111.837 140.758 112.299 141.268 112.887 141.64C113.487 142 114.171 142.18 114.939 142.18ZM120.998 127.96V142H122.438V127.96H120.998Z" fill="#424254"/>
<g clip-path="url(#clip0_105_2181)">
<path fill-rule="evenodd" clip-rule="evenodd" d="M127.108 63.575C127.12 63.6571 127.12 63.7405 127.108 63.8225V76.7C127.108 76.8648 127.064 77.0266 126.981 77.1689C126.898 77.3113 126.779 77.429 126.635 77.51L115.858 83.75V96.0725C115.86 96.2367 115.817 96.3983 115.736 96.5407C115.654 96.6831 115.536 96.8011 115.393 96.8825L92.8255 109.873C92.7739 109.903 92.7184 109.925 92.6605 109.94H92.6005C92.4427 109.978 92.2783 109.978 92.1205 109.94H92.0455C91.9917 109.921 91.9391 109.898 91.888 109.873L69.328 96.8825C69.1845 96.8015 69.0652 96.6838 68.9822 96.5414C68.8991 96.3991 68.8554 96.2373 68.8555 96.0725V57.4325C68.8569 57.3487 68.8695 57.2655 68.893 57.185C68.8942 57.16 68.8942 57.135 68.893 57.11C68.893 57.0575 68.9305 57.0125 68.953 56.9675L69.0205 56.8775C69.0514 56.8296 69.0893 56.7867 69.133 56.75L69.223 56.675L69.328 56.6L80.578 50.105C80.7197 50.0205 80.8817 49.9758 81.0467 49.9758C81.2118 49.9758 81.3737 50.0205 81.5155 50.105L92.7655 56.6L92.8705 56.675L92.9605 56.75C92.9898 56.7836 93.0173 56.8186 93.043 56.855C93.0672 56.882 93.0874 56.9123 93.103 56.945C93.1299 56.9903 93.1525 57.038 93.1705 57.0875V57.17C93.182 57.2496 93.182 57.3304 93.1705 57.41V81.5675L102.575 76.1525V63.815C102.564 63.7354 102.564 63.6546 102.575 63.575V63.4925C102.595 63.4436 102.617 63.396 102.643 63.35C102.659 63.3196 102.679 63.2917 102.703 63.2675C102.703 63.23 102.755 63.185 102.785 63.155L102.875 63.0875L102.98 63.005L114.23 56.51C114.373 56.4292 114.535 56.3867 114.699 56.3867C114.863 56.3867 115.025 56.4292 115.168 56.51L126.418 63.005L126.523 63.0875C126.555 63.1076 126.585 63.1302 126.613 63.155C126.613 63.155 126.665 63.23 126.695 63.2675L126.763 63.35C126.763 63.395 126.763 63.4475 126.823 63.4925C126.883 63.5375 127.1 63.545 127.108 63.575ZM125.263 76.1525V65.4425L121.318 67.6925L115.858 70.835V81.5675L125.263 76.1525ZM114.013 95.525V84.8075L108.62 87.875L93.298 96.62V107.435L114.013 95.525ZM70.738 59.06V95.525L91.4155 107.435V96.62L80.6155 90.5L80.5105 90.425C80.5105 90.425 80.4505 90.38 80.428 90.35C80.4006 90.3194 80.3756 90.2868 80.353 90.2525C80.3281 90.2244 80.3055 90.1943 80.2855 90.1625L80.2405 90.05C80.2223 90.0139 80.2072 89.9762 80.1955 89.9375C80.1919 89.8926 80.1919 89.8474 80.1955 89.8025V64.475L74.683 61.3325L70.738 59.0825V59.06ZM81.0805 52.025L71.683 57.4325L81.0805 62.8475L90.5005 57.4325L81.0805 52.025ZM85.9705 85.775L91.423 82.6325V59.06L87.4705 61.31L82.018 64.475V88.0625L85.9705 85.775ZM114.92 58.3925L105.5 63.8225L114.898 69.23L124.295 63.815L114.92 58.3925ZM113.983 70.8425L108.5 67.715L104.548 65.465V76.1525L110 79.295L113.953 81.545L113.983 70.8425ZM92.3605 95L106.145 87.125L113 83.1875L103.64 77.75L92.833 83.975L83.0005 89.6825L92.3605 95Z" fill="#FF2D20"/>
</g>
<defs>
<filter id="filter0_d_105_2181" x="5.12988" y="2.18799" width="185.74" height="199.624" filterUnits="userSpaceOnUse" color-interpolation-filters="sRGB">
<feFlood flood-opacity="0" result="BackgroundImageFix"/>
<feColorMatrix in="SourceAlpha" type="matrix" values="0 0 0 0 0 0 0 0 0 0 0 0 0 0 0 0 0 0 127 0" result="hardAlpha"/>
<feOffset dy="4"/>
<feGaussianBlur stdDeviation="4"/>
<feColorMatrix type="matrix" values="0 0 0 0 0.0627451 0 0 0 0 0.0941176 0 0 0 0 0.156863 0 0 0 0.04 0"/>
<feBlend mode="normal" in2="BackgroundImageFix" result="effect1_dropShadow_105_2181"/>
<feBlend mode="normal" in="SourceGraphic" in2="effect1_dropShadow_105_2181" result="shape"/>
</filter>
<clipPath id="clip0_105_2181">
<rect width="60" height="60" fill="white" transform="translate(68 50)"/>
</clipPath>
</defs>
</svg>
