<svg width="196" height="202" viewBox="0 0 196 202" fill="none" xmlns="http://www.w3.org/2000/svg">
<g filter="url(#filter0_d_105_2172)">
<path d="M78 11.547C90.376 4.40169 105.624 4.40169 118 11.547L162.87 37.453C175.247 44.5983 182.87 57.8034 182.87 72.094V123.906C182.87 138.197 175.247 151.402 162.87 158.547L118 184.453C105.624 191.598 90.376 191.598 78 184.453L33.1295 158.547C20.7535 151.402 13.1295 138.197 13.1295 123.906V72.094C13.1295 57.8034 20.7535 44.5983 33.1295 37.453L78 11.547Z" fill="white"/>
</g>
<path d="M80.7291 135.79L85.0491 142H86.9391L82.4391 135.79H80.7291ZM78.4791 129.4V142H80.0091V129.4H78.4791ZM79.3251 130.75H81.8991C82.4391 130.75 82.9131 130.846 83.3211 131.038C83.7411 131.23 84.0651 131.506 84.2931 131.866C84.5331 132.226 84.6531 132.664 84.6531 133.18C84.6531 133.696 84.5331 134.134 84.2931 134.494C84.0651 134.854 83.7411 135.13 83.3211 135.322C82.9131 135.514 82.4391 135.61 81.8991 135.61H79.3251V136.96H81.8991C82.7151 136.96 83.4411 136.81 84.0771 136.51C84.7251 136.198 85.2351 135.76 85.6071 135.196C85.9911 134.62 86.1831 133.948 86.1831 133.18C86.1831 132.4 85.9911 131.728 85.6071 131.164C85.2351 130.6 84.7251 130.168 84.0771 129.868C83.4411 129.556 82.7151 129.4 81.8991 129.4H79.3251V130.75ZM91.6653 142.18C92.5533 142.18 93.3213 142.006 93.9693 141.658C94.6293 141.298 95.1753 140.77 95.6073 140.074L94.4373 139.336C94.1373 139.84 93.7713 140.218 93.3393 140.47C92.9073 140.71 92.4093 140.83 91.8453 140.83C91.2813 140.83 90.8013 140.71 90.4053 140.47C90.0093 140.23 89.7093 139.882 89.5053 139.426C89.3013 138.97 89.1993 138.418 89.1993 137.77C89.2113 137.134 89.3193 136.6 89.5233 136.168C89.7393 135.724 90.0393 135.388 90.4233 135.16C90.8193 134.92 91.2933 134.8 91.8453 134.8C92.3133 134.8 92.7213 134.902 93.0693 135.106C93.4173 135.31 93.6873 135.592 93.8793 135.952C94.0833 136.312 94.1853 136.738 94.1853 137.23C94.1853 137.314 94.1673 137.422 94.1313 137.554C94.0953 137.674 94.0593 137.764 94.0233 137.824L94.5993 136.996H88.6593V138.22H95.7333C95.7333 138.196 95.7333 138.142 95.7333 138.058C95.7453 137.962 95.7513 137.872 95.7513 137.788C95.7513 136.912 95.5953 136.156 95.2833 135.52C94.9713 134.884 94.5213 134.398 93.9333 134.062C93.3573 133.714 92.6613 133.54 91.8453 133.54C91.0293 133.54 90.3093 133.72 89.6853 134.08C89.0733 134.44 88.5933 134.944 88.2453 135.592C87.9093 136.24 87.7413 136.996 87.7413 137.86C87.7413 138.712 87.9033 139.462 88.2273 140.11C88.5633 140.758 89.0253 141.268 89.6133 141.64C90.2133 142 90.8973 142.18 91.6653 142.18ZM98.373 139.444C98.373 139.144 98.445 138.886 98.589 138.67C98.733 138.454 98.949 138.286 99.237 138.166C99.537 138.046 99.921 137.986 100.389 137.986C100.893 137.986 101.367 138.052 101.811 138.184C102.255 138.304 102.687 138.508 103.107 138.796V137.95C103.023 137.842 102.861 137.704 102.621 137.536C102.381 137.356 102.057 137.2 101.649 137.068C101.253 136.924 100.755 136.852 100.155 136.852C99.135 136.852 98.337 137.098 97.761 137.59C97.197 138.07 96.915 138.712 96.915 139.516C96.915 140.08 97.047 140.56 97.311 140.956C97.575 141.352 97.923 141.658 98.355 141.874C98.799 142.078 99.273 142.18 99.777 142.18C100.233 142.18 100.689 142.096 101.145 141.928C101.613 141.76 102.003 141.502 102.315 141.154C102.639 140.806 102.801 140.368 102.801 139.84L102.513 138.76C102.513 139.192 102.405 139.576 102.189 139.912C101.985 140.236 101.703 140.488 101.343 140.668C100.995 140.848 100.599 140.938 100.155 140.938C99.807 140.938 99.495 140.884 99.219 140.776C98.955 140.656 98.745 140.482 98.589 140.254C98.445 140.026 98.373 139.756 98.373 139.444ZM98.157 135.628C98.289 135.532 98.469 135.418 98.697 135.286C98.925 135.154 99.201 135.04 99.525 134.944C99.861 134.848 100.233 134.8 100.641 134.8C100.893 134.8 101.133 134.824 101.361 134.872C101.589 134.92 101.787 134.998 101.955 135.106C102.135 135.214 102.273 135.364 102.369 135.556C102.465 135.736 102.513 135.97 102.513 136.258V142H103.953V136.06C103.953 135.52 103.815 135.064 103.539 134.692C103.275 134.32 102.897 134.038 102.405 133.846C101.925 133.642 101.361 133.54 100.713 133.54C99.945 133.54 99.285 133.654 98.733 133.882C98.193 134.11 97.767 134.338 97.455 134.566L98.157 135.628ZM107.039 137.86C107.039 137.284 107.159 136.774 107.399 136.33C107.651 135.874 107.987 135.52 108.407 135.268C108.839 135.016 109.325 134.89 109.865 134.89C110.309 134.89 110.723 134.962 111.107 135.106C111.503 135.238 111.845 135.418 112.133 135.646C112.421 135.874 112.625 136.126 112.745 136.402V134.602C112.457 134.266 112.043 134.008 111.503 133.828C110.975 133.636 110.429 133.54 109.865 133.54C109.061 133.54 108.335 133.726 107.687 134.098C107.039 134.47 106.523 134.98 106.139 135.628C105.767 136.276 105.581 137.02 105.581 137.86C105.581 138.688 105.767 139.432 106.139 140.092C106.523 140.74 107.039 141.25 107.687 141.622C108.335 141.994 109.061 142.18 109.865 142.18C110.429 142.18 110.975 142.09 111.503 141.91C112.043 141.718 112.457 141.454 112.745 141.118V139.318C112.625 139.582 112.421 139.834 112.133 140.074C111.845 140.302 111.503 140.488 111.107 140.632C110.723 140.764 110.309 140.83 109.865 140.83C109.325 140.83 108.839 140.704 108.407 140.452C107.987 140.188 107.651 139.834 107.399 139.39C107.159 138.946 107.039 138.436 107.039 137.86ZM113.727 133.72V135.07H117.867V133.72H113.727ZM115.077 130.84V142H116.517V130.84H115.077Z" fill="#424254"/>
<g clip-path="url(#clip0_105_2172)">
<path d="M68 56C68 52.6863 70.6863 50 74 50H122C125.314 50 128 52.6863 128 56V104C128 107.314 125.314 110 122 110H74C70.6863 110 68 107.314 68 104V56Z" fill="#20232A"/>
<path d="M98 84.8975C100.705 84.8975 102.898 82.7049 102.898 80C102.898 77.2952 100.705 75.1025 98 75.1025C95.2952 75.1025 93.1025 77.2952 93.1025 80C93.1025 82.7049 95.2952 84.8975 98 84.8975Z" fill="#61DAFB"/>
<path d="M98.0002 91.25C82.6027 91.25 70.5352 86.2925 70.5352 80C70.5352 73.7075 82.6027 68.75 98.0002 68.75C113.398 68.75 125.465 73.6775 125.465 80C125.465 86.3225 113.398 91.25 98.0002 91.25ZM98.0002 71.1875C83.2252 71.165 72.9277 75.8225 72.9277 80C72.9277 84.1775 83.2252 88.835 98.0002 88.835C112.775 88.835 123.073 84.1775 123.073 80C123.073 75.8225 112.775 71.165 98.0002 71.165V71.1875Z" fill="#61DAFB"/>
<path d="M108.965 104.495C106.527 104.495 103.587 103.16 100.392 100.565C96.1621 97.1226 91.8571 91.8126 88.2496 85.6101C80.5471 72.2751 78.7846 59.3601 84.2371 56.2176C87.0121 54.6126 91.0396 55.7526 95.5771 59.4426C99.8371 62.8776 104.142 68.1876 107.75 74.3901C115.452 87.7251 117.215 100.64 111.762 103.783C110.911 104.267 109.944 104.513 108.965 104.495ZM87.0721 57.8901C86.5086 57.8745 85.9513 58.0118 85.4596 58.2876C81.8446 60.3726 82.9996 71.6226 90.3496 84.4176C93.7846 90.3726 97.8871 95.4501 101.9 98.6676C105.552 101.668 108.702 102.74 110.54 101.668C114.155 99.5751 113.037 88.3251 105.65 75.5301C102.215 69.5751 98.1121 64.5051 94.0996 61.2801C91.3546 59.0676 88.9021 57.8901 87.0721 57.8901Z" fill="#61DAFB"/>
<path d="M87.0347 104.495C86.0614 104.5 85.1048 104.241 84.2672 103.745C78.8147 100.64 80.5772 87.725 88.2497 74.39C91.8272 68.1875 96.1322 62.8775 100.362 59.4425C104.9 55.7525 108.927 54.605 111.702 56.2175C117.155 59.3675 115.392 72.275 107.69 85.61C104.112 91.8125 99.8072 97.1225 95.5772 100.565C92.4122 103.16 89.4722 104.495 87.0347 104.495ZM108.927 57.89C107.097 57.89 104.645 59.0675 101.9 61.295C97.8872 64.5575 93.7847 69.6275 90.3497 75.545C82.9997 88.3775 81.8447 99.6275 85.4597 101.75C87.2972 102.8 90.4472 101.705 94.0997 98.75C98.1122 95.495 102.215 90.4175 105.65 84.5C113.037 71.705 114.155 60.455 110.54 58.37C110.056 58.0653 109.499 57.8993 108.927 57.89Z" fill="#61DAFB"/>
</g>
<defs>
<filter id="filter0_d_105_2172" x="5.12988" y="2.18799" width="185.74" height="199.624" filterUnits="userSpaceOnUse" color-interpolation-filters="sRGB">
<feFlood flood-opacity="0" result="BackgroundImageFix"/>
<feColorMatrix in="SourceAlpha" type="matrix" values="0 0 0 0 0 0 0 0 0 0 0 0 0 0 0 0 0 0 127 0" result="hardAlpha"/>
<feOffset dy="4"/>
<feGaussianBlur stdDeviation="4"/>
<feColorMatrix type="matrix" values="0 0 0 0 0.0627451 0 0 0 0 0.0941176 0 0 0 0 0.156863 0 0 0 0.04 0"/>
<feBlend mode="normal" in2="BackgroundImageFix" result="effect1_dropShadow_105_2172"/>
<feBlend mode="normal" in="SourceGraphic" in2="effect1_dropShadow_105_2172" result="shape"/>
</filter>
<clipPath id="clip0_105_2172">
<rect width="60" height="60" fill="white" transform="translate(68 50)"/>
</clipPath>
</defs>
</svg>
