<svg width="196" height="202" viewBox="0 0 196 202" fill="none" xmlns="http://www.w3.org/2000/svg">
<g filter="url(#filter0_d_105_2150)">
<path d="M78 11.547C90.376 4.40169 105.624 4.40169 118 11.547L162.87 37.453C175.247 44.5983 182.87 57.8034 182.87 72.094V123.906C182.87 138.197 175.247 151.402 162.87 158.547L118 184.453C105.624 191.598 90.376 191.598 78 184.453L33.1295 158.547C20.7535 151.402 13.1295 138.197 13.1295 123.906V72.094C13.1295 57.8034 20.7535 44.5983 33.1295 37.453L78 11.547Z" fill="white"/>
</g>
<path d="M82.9605 135.79L87.2805 142H89.1705L84.6705 135.79H82.9605ZM80.7105 129.4V142H82.2405V129.4H80.7105ZM81.5565 130.75H84.1305C84.6705 130.75 85.1445 130.846 85.5525 131.038C85.9725 131.23 86.2965 131.506 86.5245 131.866C86.7645 132.226 86.8845 132.664 86.8845 133.18C86.8845 133.696 86.7645 134.134 86.5245 134.494C86.2965 134.854 85.9725 135.13 85.5525 135.322C85.1445 135.514 84.6705 135.61 84.1305 135.61H81.5565V136.96H84.1305C84.9465 136.96 85.6725 136.81 86.3085 136.51C86.9565 136.198 87.4665 135.76 87.8385 135.196C88.2225 134.62 88.4145 133.948 88.4145 133.18C88.4145 132.4 88.2225 131.728 87.8385 131.164C87.4665 130.6 86.9565 130.168 86.3085 129.868C85.6725 129.556 84.9465 129.4 84.1305 129.4H81.5565V130.75ZM92.1328 138.76V133.72H90.6928V138.94C90.6928 139.924 90.9508 140.71 91.4668 141.298C91.9828 141.886 92.6728 142.18 93.5368 142.18C94.0888 142.18 94.5688 142.06 94.9768 141.82C95.3848 141.568 95.7268 141.196 96.0028 140.704V142H97.4428V133.72H96.0028V138.76C96.0028 139.168 95.9128 139.528 95.7328 139.84C95.5648 140.152 95.3188 140.398 94.9948 140.578C94.6828 140.746 94.3168 140.83 93.8968 140.83C93.3208 140.83 92.8828 140.65 92.5828 140.29C92.2828 139.93 92.1328 139.42 92.1328 138.76ZM101.5 127.96H100.06V142H101.5V127.96ZM108.43 137.86C108.43 136.96 108.244 136.192 107.872 135.556C107.5 134.908 107.002 134.41 106.378 134.062C105.766 133.714 105.082 133.54 104.326 133.54C103.642 133.54 103.036 133.714 102.508 134.062C101.992 134.41 101.584 134.908 101.284 135.556C100.996 136.192 100.852 136.96 100.852 137.86C100.852 138.748 100.996 139.516 101.284 140.164C101.584 140.812 101.992 141.31 102.508 141.658C103.036 142.006 103.642 142.18 104.326 142.18C105.082 142.18 105.766 142.006 106.378 141.658C107.002 141.31 107.5 140.812 107.872 140.164C108.244 139.516 108.43 138.748 108.43 137.86ZM106.972 137.86C106.972 138.496 106.84 139.036 106.576 139.48C106.324 139.924 105.982 140.26 105.55 140.488C105.13 140.716 104.662 140.83 104.146 140.83C103.726 140.83 103.312 140.716 102.904 140.488C102.496 140.26 102.16 139.924 101.896 139.48C101.632 139.036 101.5 138.496 101.5 137.86C101.5 137.224 101.632 136.684 101.896 136.24C102.16 135.796 102.496 135.46 102.904 135.232C103.312 135.004 103.726 134.89 104.146 134.89C104.662 134.89 105.13 135.004 105.55 135.232C105.982 135.46 106.324 135.796 106.576 136.24C106.84 136.684 106.972 137.224 106.972 137.86ZM116.722 133.72H115.102L112.546 140.128L113.14 140.2L110.512 133.72H108.802L111.97 140.83L109.702 145.96H111.322L116.722 133.72Z" fill="#424254"/>
<g clip-path="url(#clip0_105_2150)">
<path fill-rule="evenodd" clip-rule="evenodd" d="M80.2246 109.917L124.58 106.91L128 62.1799L114.485 89.5774L80.2246 109.917Z" fill="url(#paint0_linear_105_2150)"/>
<path fill-rule="evenodd" clip-rule="evenodd" d="M110.457 94.2725L124.655 106.873L120.845 80.5625L110.457 94.2725Z" fill="url(#paint1_linear_105_2150)"/>
<path fill-rule="evenodd" clip-rule="evenodd" d="M80.375 109.858L124.708 106.873L96.7775 104.683L80.375 109.858Z" fill="url(#paint2_linear_105_2150)"/>
<path fill-rule="evenodd" clip-rule="evenodd" d="M72.043 90.2899L80.413 109.865L87.3955 87.0049L72.043 90.2899Z" fill="url(#paint3_linear_105_2150)"/>
<path fill-rule="evenodd" clip-rule="evenodd" d="M85.6621 86.4275L110.457 94.3475L104.037 69.2075L85.6621 86.4275Z" fill="url(#paint4_linear_105_2150)"/>
<path fill-rule="evenodd" clip-rule="evenodd" d="M104.338 71.0074L126.545 69.5599L109.175 55.3774L104.338 71.0074Z" fill="url(#paint5_linear_105_2150)"/>
<path fill-rule="evenodd" clip-rule="evenodd" d="M101.765 50.24L118.422 50.315L108.207 55.9625L101.765 50.24Z" fill="url(#paint6_linear_105_2150)"/>
<path fill-rule="evenodd" clip-rule="evenodd" d="M68.8175 80.855L68 97.955L72.2825 90.155L68.8175 80.855Z" fill="url(#paint7_linear_105_2150)"/>
<path fill-rule="evenodd" clip-rule="evenodd" d="M68.585 80.5625L72.0725 90.44L87.2 87.05L104.48 71L109.355 55.5125L101.675 50.0825L88.625 54.965C84.5 58.79 76.535 66.3575 76.25 66.5C75.965 66.6425 71 76.07 68.585 80.5625Z" fill="white"/>
<path fill-rule="evenodd" clip-rule="evenodd" d="M80.8176 62.8176C89.7501 53.9826 101.218 48.7626 105.628 53.2101C110.038 57.6576 105.358 68.4651 96.4476 77.3001C87.5376 86.1351 76.1901 91.6476 71.7501 87.1926C67.3101 82.7376 71.9001 71.6526 80.8176 62.8176Z" fill="url(#paint8_linear_105_2150)"/>
<path fill-rule="evenodd" clip-rule="evenodd" d="M80.4121 109.858L87.3421 86.9226L110.33 94.3101C102.02 102.11 92.7496 108.695 80.4121 109.858Z" fill="url(#paint9_linear_105_2150)"/>
<path fill-rule="evenodd" clip-rule="evenodd" d="M104.51 70.9475L110.412 94.325C117.357 87.02 123.59 79.175 126.642 69.5L104.51 70.9475Z" fill="url(#paint10_linear_105_2150)"/>
<path fill-rule="evenodd" clip-rule="evenodd" d="M126.583 69.5826C128.945 62.4576 129.5 52.2501 118.347 50.3301L109.25 55.3776L126.583 69.5826Z" fill="url(#paint11_linear_105_2150)"/>
<path fill-rule="evenodd" clip-rule="evenodd" d="M68 97.8574C68.33 109.617 76.8125 109.797 80.4275 109.857L72.08 90.3574L68 97.8574Z" fill="#AA3E35"/>
<path fill-rule="evenodd" clip-rule="evenodd" d="M104.54 71.0001C109.88 74.2776 120.635 80.8626 120.853 80.9826C121.19 81.1776 125.488 73.7376 126.463 69.5376L104.54 71.0001Z" fill="url(#paint12_radial_105_2150)"/>
<path fill-rule="evenodd" clip-rule="evenodd" d="M87.3271 86.9226L96.5821 104.75C101.62 101.952 106.228 98.4405 110.262 94.3251L87.3271 86.9226Z" fill="url(#paint13_radial_105_2150)"/>
<path fill-rule="evenodd" clip-rule="evenodd" d="M72.043 90.4175L70.7305 106.033C73.2055 109.408 76.6105 109.708 80.1805 109.445C77.6005 103.01 72.4405 90.155 72.043 90.4175Z" fill="url(#paint14_linear_105_2150)"/>
<path fill-rule="evenodd" clip-rule="evenodd" d="M109.152 55.4149L127.542 57.9949C126.56 53.8399 123.545 51.1549 118.407 50.3149L109.152 55.4149Z" fill="url(#paint15_linear_105_2150)"/>
</g>
<defs>
<filter id="filter0_d_105_2150" x="5.12988" y="2.18799" width="185.74" height="199.624" filterUnits="userSpaceOnUse" color-interpolation-filters="sRGB">
<feFlood flood-opacity="0" result="BackgroundImageFix"/>
<feColorMatrix in="SourceAlpha" type="matrix" values="0 0 0 0 0 0 0 0 0 0 0 0 0 0 0 0 0 0 127 0" result="hardAlpha"/>
<feOffset dy="4"/>
<feGaussianBlur stdDeviation="4"/>
<feColorMatrix type="matrix" values="0 0 0 0 0.0627451 0 0 0 0 0.0941176 0 0 0 0 0.156863 0 0 0 0.04 0"/>
<feBlend mode="normal" in2="BackgroundImageFix" result="effect1_dropShadow_105_2150"/>
<feBlend mode="normal" in="SourceGraphic" in2="effect1_dropShadow_105_2150" result="shape"/>
</filter>
<linearGradient id="paint0_linear_105_2150" x1="120.717" y1="115.355" x2="108.057" y2="93.0049" gradientUnits="userSpaceOnUse">
<stop stop-color="#F68F71"/>
<stop offset="0.41" stop-color="#DC5242"/>
<stop offset="0.99" stop-color="#A72C32"/>
<stop offset="1" stop-color="#A72C32"/>
</linearGradient>
<linearGradient id="paint1_linear_105_2150" x1="127.017" y1="96.5825" x2="110.705" y2="85.64" gradientUnits="userSpaceOnUse">
<stop stop-color="#9B3F34"/>
<stop offset="0.99" stop-color="#A23E36"/>
<stop offset="1" stop-color="#A23E36"/>
</linearGradient>
<linearGradient id="paint2_linear_105_2150" x1="113.968" y1="116.038" x2="97.655" y2="105.088" gradientUnits="userSpaceOnUse">
<stop stop-color="#9B3F34"/>
<stop offset="0.99" stop-color="#A23E36"/>
<stop offset="1" stop-color="#A23E36"/>
</linearGradient>
<linearGradient id="paint3_linear_105_2150" x1="79.7155" y1="88.6624" x2="82.2505" y2="105.095" gradientUnits="userSpaceOnUse">
<stop stop-color="white"/>
<stop offset="0.23" stop-color="#E28B6F"/>
<stop offset="0.46" stop-color="#DA6144"/>
<stop offset="0.99" stop-color="#A60003"/>
<stop offset="1" stop-color="#A60003"/>
</linearGradient>
<linearGradient id="paint4_linear_105_2150" x1="97.1146" y1="73.31" x2="98.0446" y2="90.0875" gradientUnits="userSpaceOnUse">
<stop stop-color="white"/>
<stop offset="0.23" stop-color="#E08A6D"/>
<stop offset="0.56" stop-color="#C14435"/>
<stop offset="0.99" stop-color="#B13430"/>
<stop offset="1" stop-color="#B13430"/>
</linearGradient>
<linearGradient id="paint5_linear_105_2150" x1="112.55" y1="57.8149" x2="115.34" y2="69.8299" gradientUnits="userSpaceOnUse">
<stop stop-color="white"/>
<stop offset="0.18" stop-color="#DF8063"/>
<stop offset="0.4" stop-color="#C94D37"/>
<stop offset="0.99" stop-color="#B13430"/>
<stop offset="1" stop-color="#B13430"/>
</linearGradient>
<linearGradient id="paint6_linear_105_2150" x1="104.03" y1="53.5775" x2="116.052" y2="47.57" gradientUnits="userSpaceOnUse">
<stop stop-color="white"/>
<stop offset="0.54" stop-color="#C94838"/>
<stop offset="0.99" stop-color="#C12D2F"/>
<stop offset="1" stop-color="#C12D2F"/>
</linearGradient>
<linearGradient id="paint7_linear_105_2150" x1="69.185" y1="84.47" x2="70.175" y2="94.3775" gradientUnits="userSpaceOnUse">
<stop stop-color="white"/>
<stop offset="0.31" stop-color="#DA6548"/>
<stop offset="0.99" stop-color="#C14433"/>
<stop offset="1" stop-color="#C14433"/>
</linearGradient>
<linearGradient id="paint8_linear_105_2150" x1="62.3826" y1="97.0551" x2="108.89" y2="49.2351" gradientUnits="userSpaceOnUse">
<stop stop-color="#BD0012"/>
<stop offset="0.07" stop-color="white"/>
<stop offset="0.17" stop-color="white"/>
<stop offset="0.27" stop-color="#C95841"/>
<stop offset="0.33" stop-color="#983734"/>
<stop offset="0.46" stop-color="#AE4231"/>
<stop offset="0.72" stop-color="#B93E2F"/>
<stop offset="0.99" stop-color="#DE4E2B"/>
<stop offset="1" stop-color="#DE4E2B"/>
</linearGradient>
<linearGradient id="paint9_linear_105_2150" x1="97.9996" y1="101.878" x2="83.9971" y2="98.4201" gradientUnits="userSpaceOnUse">
<stop stop-color="#9F3633"/>
<stop offset="0.54" stop-color="#A73532"/>
<stop offset="0.99" stop-color="#B13439"/>
<stop offset="1" stop-color="#B13439"/>
</linearGradient>
<linearGradient id="paint10_linear_105_2150" x1="122.06" y1="85.0625" x2="109.617" y2="73.91" gradientUnits="userSpaceOnUse">
<stop stop-color="#923C36"/>
<stop offset="0.99" stop-color="#AA3531"/>
<stop offset="1" stop-color="#AA3531"/>
</linearGradient>
<linearGradient id="paint11_linear_105_2150" x1="126.635" y1="64.6026" x2="120.432" y2="57.9726" gradientUnits="userSpaceOnUse">
<stop stop-color="#8D3E36"/>
<stop offset="0.99" stop-color="#AA3E37"/>
<stop offset="1" stop-color="#AA3E37"/>
</linearGradient>
<radialGradient id="paint12_radial_105_2150" cx="0" cy="0" r="1" gradientUnits="userSpaceOnUse" gradientTransform="translate(111.56 74.1276) scale(15.2475 15.2475)">
<stop stop-color="#B13430"/>
<stop offset="0.99" stop-color="#923934"/>
<stop offset="1" stop-color="#923934"/>
</radialGradient>
<radialGradient id="paint13_radial_105_2150" cx="0" cy="0" r="1" gradientUnits="userSpaceOnUse" gradientTransform="translate(90.4396 94.2201) scale(20.2725)">
<stop stop-color="#AE3531"/>
<stop offset="0.99" stop-color="#953A36"/>
<stop offset="1" stop-color="#953A36"/>
</radialGradient>
<linearGradient id="paint14_linear_105_2150" x1="76.078" y1="109.843" x2="71.023" y2="92.705" gradientUnits="userSpaceOnUse">
<stop stop-color="#994939"/>
<stop offset="0.43" stop-color="#AA3A36"/>
<stop offset="0.99" stop-color="#B83936"/>
<stop offset="1" stop-color="#B83936"/>
</linearGradient>
<linearGradient id="paint15_linear_105_2150" x1="114.83" y1="53.0524" x2="126.155" y2="58.0474" gradientUnits="userSpaceOnUse">
<stop stop-color="#B9392F"/>
<stop offset="0.44" stop-color="#A23A36"/>
<stop offset="0.99" stop-color="#8D463A"/>
<stop offset="1" stop-color="#8D463A"/>
</linearGradient>
<clipPath id="clip0_105_2150">
<rect width="60" height="60" fill="white" transform="translate(68 50)"/>
</clipPath>
</defs>
</svg>
